<svg width="26" height="26" viewBox="0 0 26 26" fill="none" xmlns="http://www.w3.org/2000/svg">
<circle cx="12.5921" cy="12.5921" r="12.5921" fill="white"/>
<path d="M5.59619 11.3641C5.17558 11.3641 4.8346 11.7051 4.8346 12.1257C4.8346 12.5463 5.17558 12.8873 5.59619 12.8873V12.1257V11.3641ZM20.126 12.6643C20.4234 12.3668 20.4234 11.8846 20.126 11.5872L15.2792 6.7405C14.9818 6.44308 14.4996 6.44308 14.2022 6.7405C13.9048 7.03792 13.9048 7.52013 14.2022 7.81755L18.5104 12.1257L14.2022 16.4339C13.9048 16.7313 13.9048 17.2135 14.2022 17.511C14.4996 17.8084 14.9818 17.8084 15.2792 17.511L20.126 12.6643ZM5.59619 12.1257V12.8873L19.5874 12.8873V12.1257V11.3641L5.59619 11.3641V12.1257Z" fill="#3744A5"/>
</svg>
