<svg width="170" height="104" viewBox="0 0 170 104" fill="none" xmlns="http://www.w3.org/2000/svg">
<path d="M84.8706 -31L169.741 116H0.000114441L84.8706 -31Z" fill="#0DF469"/>
<path d="M75.4925 75.7804V71.5199C75.4925 69.9577 76.0961 68.4666 77.3033 67.0464C78.5814 65.5552 80.1436 64.0996 81.9898 62.6794C83.836 61.1882 85.6822 59.6971 87.5284 58.2059C89.4456 56.6437 91.0078 55.046 92.2149 53.4129C93.4931 51.7797 94.1322 50.04 94.1322 48.1938C94.1322 44.7144 92.996 41.8385 90.7238 39.5663C88.5225 37.294 85.2917 36.1579 81.0312 36.1579C76.7707 36.1579 73.2203 37.01 70.38 38.7142C67.6107 40.3474 64.9479 42.7972 62.3916 46.0635V34.4537C64.3088 32.1104 67.0426 30.1222 70.593 28.489C74.1434 26.8559 77.9778 26.0393 82.0963 26.0393C86.3568 26.0393 90.2267 26.9269 93.7061 28.7021C97.1855 30.4773 99.9193 32.927 101.908 36.0514C103.967 39.1757 104.996 42.7617 104.996 46.8091C104.996 49.4364 104.322 51.8152 102.973 53.9454C101.695 56.0046 100.061 57.8864 98.0731 59.5906C96.1559 61.2947 94.2387 62.8924 92.3214 64.3836C90.4042 65.8748 88.8065 67.3659 87.5284 68.8571C86.2503 70.3483 85.6467 71.9104 85.7177 73.5436L85.8242 75.7804H75.4925ZM81.1377 100.917C79.0785 100.917 77.3033 100.172 75.8121 98.6805C74.3919 97.1893 73.6818 95.4496 73.6818 93.4614C73.6818 91.4021 74.3919 89.6624 75.8121 88.2423C77.3033 86.7511 79.0785 86.0055 81.1377 86.0055C83.1969 86.0055 84.9366 86.7511 86.3568 88.2423C87.8479 89.6624 88.5935 91.4021 88.5935 93.4614C88.5935 95.4496 87.8479 97.1893 86.3568 98.6805C84.9366 100.172 83.1969 100.917 81.1377 100.917Z" fill="#1A4A4D"/>
</svg>
