<svg width="972" height="492" viewBox="0 0 972 492" fill="none" xmlns="http://www.w3.org/2000/svg">
<g clip-path="url(#clip0_1959_86)">
<path d="M132.219 374.79V371.83L135.094 371.569C137.534 371.394 139.19 370.899 140.061 370.087C140.932 369.215 141.368 367.733 141.368 365.645V322.946C141.368 320.858 140.932 319.403 140.061 318.591C139.19 317.719 137.534 317.196 135.094 317.022L132.219 316.76V313.796H163.151C165.591 313.796 167.798 313.768 169.773 313.709C171.748 313.594 173.636 313.452 175.437 313.277L176.657 327.392H173.607C172.794 323.79 171.545 321.262 169.861 319.812C168.176 318.302 165.678 317.545 162.367 317.545H149.558V342.903H166.549C168.64 342.903 170.093 342.494 170.906 341.682C171.777 340.81 172.271 339.3 172.387 337.148L172.474 334.799H175.524V354.664H172.474L172.387 351.874C172.329 349.96 171.864 348.625 170.993 347.868C170.122 347.055 168.64 346.647 166.549 346.647H149.558V365.209C149.558 367.356 150.023 368.893 150.952 369.825C151.882 370.697 153.596 371.247 156.093 371.482L159.492 371.83V374.79H132.219ZM201.825 375.662C197.759 375.662 194.535 374.616 192.153 372.528C189.83 370.435 188.668 367.531 188.668 363.814V337.846C188.668 335.932 188.174 334.712 187.186 334.188C186.199 333.606 184.572 333.229 182.307 333.055V330.527L195.029 328.783H196.51V360.849C196.51 363.116 196.916 364.915 197.73 366.25C198.543 367.531 199.705 368.462 201.215 369.04C202.725 369.623 204.526 369.912 206.617 369.912C208.883 369.912 210.887 369.536 212.629 368.779C214.43 368.026 216.173 366.806 217.857 365.121V337.846C217.857 335.932 217.335 334.712 216.289 334.188C215.301 333.606 213.559 333.229 211.061 333.055V330.527L224.218 328.783H225.7V363.465C225.7 365.383 226.106 366.746 226.919 367.558C227.791 368.315 229.534 368.866 232.147 369.215H232.67V371.83L219.339 374.964H218.119V368.953H217.596C214.866 371.335 212.339 373.051 210.016 374.093C207.692 375.139 204.962 375.662 201.825 375.662ZM236.255 374.79V371.83L238.52 371.482C240.437 371.192 241.686 370.669 242.267 369.912C242.906 369.155 243.226 367.879 243.226 366.081V316.935C243.226 314.902 242.732 313.539 241.744 312.841C240.757 312.144 238.985 311.676 236.429 311.446V308.918L249.848 305.086H251.068V366.081C251.068 367.879 251.358 369.155 251.939 369.912C252.578 370.669 253.856 371.192 255.773 371.482L258.038 371.83V374.79H236.255ZM261.527 374.79V371.83L263.793 371.482C265.709 371.192 266.958 370.669 267.539 369.912C268.178 369.155 268.498 367.879 268.498 366.081V316.935C268.498 314.902 268.004 313.539 267.017 312.841C266.029 312.144 264.257 311.676 261.701 311.446V308.918L275.12 305.086H276.34V366.081C276.34 367.879 276.63 369.155 277.211 369.912C277.85 370.669 279.128 371.192 281.045 371.482L283.31 371.83V374.79H261.527ZM287.496 374.79V371.83L289.849 371.482C291.708 371.192 292.928 370.669 293.509 369.912C294.147 369.155 294.467 367.879 294.467 366.081V340.81C294.467 338.777 293.973 337.41 292.986 336.712C291.998 336.019 290.227 335.551 287.671 335.322V332.793L300.828 328.957H302.047V335.322H302.571C305.359 332.881 307.944 331.164 310.325 330.178C312.707 329.132 315.495 328.613 318.69 328.613C322.814 328.613 326.038 329.655 328.362 331.747C330.744 333.78 331.935 336.685 331.935 340.461V366.081C331.935 367.879 332.225 369.155 332.806 369.912C333.445 370.669 334.723 371.192 336.639 371.482L338.905 371.83V374.79H317.122V371.83L319.474 371.482C321.333 371.192 322.553 370.669 323.134 369.912C323.773 369.155 324.092 367.879 324.092 366.081V343.426C324.092 341.159 323.686 339.388 322.873 338.107C322.059 336.772 320.898 335.813 319.387 335.235C317.877 334.652 316.047 334.363 313.898 334.363C311.574 334.363 309.512 334.739 307.711 335.496C305.969 336.249 304.168 337.382 302.309 338.892V366.081C302.309 367.879 302.599 369.155 303.18 369.912C303.819 370.669 305.097 371.192 307.014 371.482L309.28 371.83V374.79H287.496ZM365.633 375.662C361.392 375.662 357.616 374.675 354.305 372.702C351.052 370.669 348.525 367.907 346.725 364.424C344.924 360.937 344.024 356.986 344.024 352.571C344.024 347.982 345.04 343.889 347.073 340.287C349.165 336.685 351.953 333.84 355.438 331.747C358.924 329.655 362.815 328.613 367.114 328.613C371.587 328.613 375.217 329.916 378.006 332.532C380.794 335.148 382.188 338.952 382.188 343.944C382.188 344.293 382.188 344.674 382.188 345.078C382.188 345.426 382.13 345.922 382.014 346.56L381.839 347.78H350.646V344.206H373.562C373.736 343.219 373.823 342.26 373.823 341.333C373.823 338.663 373.068 336.51 371.558 334.886C370.105 333.257 368.043 332.445 365.371 332.445C361.305 332.445 358.052 334.014 355.612 337.148C353.172 340.227 351.953 344.325 351.953 349.437C351.953 353.214 352.679 356.582 354.131 359.542C355.583 362.506 357.646 364.86 360.318 366.599C363.048 368.288 366.214 369.127 369.815 369.127C371.848 369.127 373.823 368.806 375.74 368.168C377.657 367.471 379.603 366.397 381.578 364.947L383.321 366.599C380.707 369.797 378.006 372.119 375.217 373.574C372.429 374.964 369.234 375.662 365.633 375.662ZM404.089 375.662C401.881 375.662 399.645 375.373 397.379 374.79C395.114 374.212 392.993 373.427 391.018 372.441V361.024H393.894C394.475 364.8 395.782 367.59 397.815 369.389C399.906 371.192 402.346 372.092 405.134 372.092C407.807 372.092 409.898 371.422 411.408 370.087C412.918 368.692 413.673 366.92 413.673 364.773C413.673 362.795 413.063 361.258 411.844 360.152C410.682 358.991 409.113 357.89 407.138 356.843L401.213 353.705C397.437 351.672 394.881 349.699 393.545 347.78C392.268 345.862 391.628 343.77 391.628 341.508C391.628 338.952 392.326 336.712 393.72 334.799C395.172 332.881 397.147 331.371 399.645 330.265C402.143 329.164 404.96 328.613 408.097 328.613C410.362 328.613 412.424 328.843 414.283 329.306C416.142 329.774 417.827 330.352 419.337 331.05V341.159H416.461C416.171 339.649 415.648 338.227 414.893 336.887C414.138 335.551 413.092 334.45 411.757 333.578C410.479 332.647 408.765 332.183 406.615 332.183C404.06 332.183 402.085 332.853 400.69 334.188C399.296 335.524 398.599 337.121 398.599 338.979C398.599 340.489 399.093 341.856 400.08 343.077C401.126 344.293 402.782 345.514 405.047 346.734L410.798 349.699C414.051 351.323 416.491 353.007 418.117 354.751C419.802 356.495 420.644 358.904 420.644 361.983C420.644 364.887 419.86 367.356 418.291 369.389C416.723 371.422 414.661 372.991 412.105 374.093C409.607 375.139 406.935 375.662 404.089 375.662ZM442.465 375.662C440.257 375.662 438.021 375.373 435.755 374.79C433.49 374.212 431.37 373.427 429.395 372.441V361.024H432.27C432.851 364.8 434.158 367.59 436.191 369.389C438.282 371.192 440.722 372.092 443.51 372.092C446.182 372.092 448.274 371.422 449.784 370.087C451.294 368.692 452.05 366.92 452.05 364.773C452.05 362.795 451.439 361.258 450.22 360.152C449.058 358.991 447.489 357.89 445.514 356.843L439.589 353.705C435.814 351.672 433.258 349.699 431.921 347.78C430.643 345.862 430.005 343.77 430.005 341.508C430.005 338.952 430.702 336.712 432.096 334.799C433.548 332.881 435.523 331.371 438.021 330.265C440.519 329.164 443.336 328.613 446.473 328.613C448.738 328.613 450.801 328.843 452.66 329.306C454.518 329.774 456.203 330.352 457.713 331.05V341.159H454.838C454.547 339.649 454.025 338.227 453.269 336.887C452.514 335.551 451.469 334.45 450.133 333.578C448.855 332.647 447.141 332.183 444.992 332.183C442.436 332.183 440.461 332.853 439.067 334.188C437.673 335.524 436.976 337.121 436.976 338.979C436.976 340.489 437.469 341.856 438.457 343.077C439.502 344.293 441.158 345.514 443.423 346.734L449.174 349.699C452.427 351.323 454.867 353.007 456.493 354.751C458.178 356.495 459.02 358.904 459.02 361.983C459.02 364.887 458.236 367.356 456.667 369.389C455.099 371.422 453.037 372.991 450.481 374.093C447.983 375.139 445.311 375.662 442.465 375.662ZM509.823 375.662C505.175 375.662 501.082 374.675 497.535 372.702C493.992 370.724 491.234 367.967 489.261 364.424C487.283 360.881 486.297 356.784 486.297 352.135C486.297 347.606 487.283 343.568 489.261 340.025C491.234 336.483 493.965 333.693 497.447 331.66C500.995 329.627 505.115 328.613 509.823 328.613C514.527 328.613 518.652 329.6 522.195 331.573C525.737 333.551 528.5 336.308 530.473 339.851C532.446 343.338 533.437 347.404 533.437 352.048C533.437 356.637 532.446 360.707 530.473 364.25C528.5 367.792 525.737 370.582 522.195 372.615C518.712 374.648 514.587 375.662 509.823 375.662ZM511.393 371.743C515.458 371.743 518.739 370.288 521.236 367.384C523.737 364.424 524.985 360.097 524.985 354.402C524.985 350.336 524.315 346.675 522.979 343.426C521.704 340.113 519.813 337.469 517.317 335.496C514.816 333.519 511.829 332.532 508.341 332.532C504.276 332.532 500.995 334.014 498.494 336.974C495.997 339.879 494.749 344.206 494.749 349.96C494.749 353.906 495.415 357.541 496.755 360.849C498.09 364.162 499.976 366.806 502.417 368.779C504.913 370.757 507.905 371.743 511.393 371.743ZM539.976 374.79V371.83L542.326 371.482C544.129 371.247 545.35 370.812 545.988 370.174C546.626 369.536 546.947 368.43 546.947 366.861V334.973H539.192V333.317L541.367 329.48H546.947V328.439C546.947 325.24 547.585 322.221 548.86 319.376C550.2 316.471 551.971 313.915 554.179 311.708C556.441 309.501 558.942 307.785 561.672 306.564C564.458 305.348 567.307 304.738 570.212 304.738C572.474 304.738 574.507 305.174 576.31 306.045C578.169 306.913 579.096 308.078 579.096 309.528C579.096 310.634 578.545 311.561 577.444 312.318C576.398 313.016 575.292 313.103 574.131 312.58L567.596 309.616C566.899 309.326 566.233 309.18 565.591 309.18C564.141 309.18 562.572 309.85 560.887 311.185C559.203 312.52 557.749 314.379 556.528 316.76C555.367 319.142 554.789 321.959 554.789 325.213V329.48H569.602V331.137L567.335 334.973H554.789V365.557C554.789 367.59 555.193 369.04 556.01 369.912C556.822 370.784 558.304 371.307 560.451 371.482L563.503 371.83V374.79H539.976ZM624.653 375.662C618.091 375.662 612.369 374.354 607.491 371.743C602.609 369.068 598.837 365.438 596.161 360.849C593.55 356.261 592.243 351.034 592.243 345.165C592.243 340.75 593.027 336.598 594.592 332.706C596.221 328.815 598.516 325.387 601.48 322.423C604.499 319.463 608.101 317.137 612.282 315.452C616.467 313.768 621.111 312.929 626.223 312.929C630.348 312.929 634.037 313.365 637.291 314.232C640.599 315.049 643.885 316.237 647.134 317.807V329.48H644.087C643.1 325.415 640.893 322.308 637.465 320.161C634.092 318.008 629.884 316.935 624.828 316.935C619.775 316.935 615.476 318.068 611.933 320.335C608.391 322.597 605.688 325.676 603.829 329.568C601.971 333.463 601.044 337.905 601.044 342.903C601.044 346.445 601.562 349.928 602.609 353.356C603.715 356.784 605.312 359.89 607.404 362.68C609.492 365.411 612.08 367.59 615.159 369.215C618.293 370.844 621.895 371.656 625.961 371.656C628.811 371.656 631.307 371.335 633.455 370.697C635.662 369.999 637.552 368.604 639.117 366.512C640.746 364.424 642.109 361.345 643.215 357.279H646.266V371.133C642.141 372.757 638.277 373.918 634.675 374.616C631.073 375.313 627.732 375.662 624.653 375.662ZM652.778 374.79V371.83L655.045 371.482C656.958 371.192 658.211 370.669 658.789 369.912C659.427 369.155 659.748 367.879 659.748 366.081V316.935C659.748 314.902 659.253 313.539 658.266 312.841C657.279 312.144 655.508 311.676 652.952 311.446V308.918L666.37 305.086H667.59V335.06H668.114C669.857 333.491 671.509 332.243 673.079 331.311C674.648 330.384 676.305 329.714 678.048 329.306C679.788 328.843 681.765 328.613 683.972 328.613C688.098 328.613 691.319 329.655 693.641 331.747C696.023 333.78 697.216 336.685 697.216 340.461V366.081C697.216 367.879 697.505 369.155 698.088 369.912C698.725 370.669 700.006 371.192 701.919 371.482L704.186 371.83V374.79H682.403V371.83L684.67 371.482C686.583 371.192 687.836 370.669 688.414 369.912C689.052 369.155 689.373 367.879 689.373 366.081V343.426C689.373 341.159 688.965 339.388 688.153 338.107C687.341 336.772 686.18 335.813 684.67 335.235C683.16 334.652 681.329 334.363 679.177 334.363C676.855 334.363 674.795 334.739 672.991 335.496C671.193 336.249 669.389 337.382 667.59 338.892V366.081C667.59 367.879 667.88 369.155 668.462 369.912C669.1 370.669 670.381 371.192 672.294 371.482L674.561 371.83V374.79H652.778ZM708.187 374.79V371.83L710.542 371.482C712.4 371.247 713.621 370.756 714.199 369.999C714.841 369.242 715.158 367.939 715.158 366.081V340.81C715.158 338.892 714.694 337.557 713.763 336.8C712.836 336.047 711.032 335.551 708.362 335.322V332.793L721.518 328.957H722.739V335.932H723.523C724.918 333.954 726.662 332.27 728.75 330.875C730.842 329.48 733.311 328.783 736.156 328.783C738.249 328.783 739.818 329.219 740.864 330.091C741.966 330.907 742.521 332.036 742.521 333.491C742.521 334.478 742.14 335.349 741.387 336.107C740.63 336.859 739.758 337.382 738.772 337.671C737.785 337.905 736.826 337.759 735.899 337.235L731.976 335.06C731.219 334.592 730.351 334.592 729.36 335.06C728.433 335.464 727.502 336.074 726.575 336.887C725.643 337.703 724.859 338.516 724.221 339.328C723.583 340.14 723.174 340.723 723 341.072V366.081C723 367.939 723.349 369.242 724.046 369.999C724.804 370.697 726.254 371.16 728.406 371.394L731.714 371.83V374.79H708.187ZM745.458 374.79V371.83L747.812 371.482C749.67 371.192 750.891 370.669 751.469 369.912C752.111 369.155 752.428 367.879 752.428 366.081V340.81C752.428 338.777 751.937 337.41 750.946 336.712C749.959 336.019 748.188 335.551 745.632 335.322V332.793L759.05 328.957H760.27V366.081C760.27 367.879 760.564 369.155 761.142 369.912C761.78 370.669 763.06 371.192 764.978 371.482L767.241 371.83V374.79H745.458ZM755.479 322.248C754.025 322.248 752.809 321.785 751.818 320.858C750.831 319.867 750.34 318.619 750.34 317.109C750.34 315.599 750.831 314.379 751.818 313.452C752.809 312.52 754.025 312.057 755.479 312.057C756.874 312.057 758.063 312.52 759.05 313.452C760.041 314.379 760.532 315.599 760.532 317.109C760.532 318.619 760.041 319.867 759.05 320.858C758.063 321.785 756.874 322.248 755.479 322.248ZM786.743 375.662C784.536 375.662 782.301 375.373 780.034 374.79C777.772 374.212 775.652 373.427 773.674 372.441V361.024H776.551C777.129 364.8 778.437 367.59 780.47 369.389C782.562 371.192 785.004 372.092 787.789 372.092C790.464 372.092 792.552 371.422 794.062 370.087C795.576 368.692 796.329 366.92 796.329 364.773C796.329 362.795 795.719 361.258 794.498 360.152C793.337 358.991 791.768 357.89 789.794 356.843L783.87 353.705C780.094 351.672 777.538 349.699 776.202 347.78C774.922 345.862 774.284 343.77 774.284 341.508C774.284 338.952 774.982 336.712 776.377 334.799C777.827 332.881 779.805 331.371 782.301 330.265C784.797 329.164 787.615 328.613 790.753 328.613C793.02 328.613 795.081 328.843 796.939 329.306C798.798 329.774 800.482 330.352 801.991 331.05V341.159H799.119C798.825 339.649 798.307 338.227 797.549 336.887C796.792 335.551 795.751 334.45 794.411 333.578C793.135 332.647 791.419 332.183 789.271 332.183C786.715 332.183 784.742 332.853 783.347 334.188C781.952 335.524 781.255 337.121 781.255 338.979C781.255 340.489 781.75 341.856 782.737 343.077C783.783 344.293 785.44 345.514 787.702 346.734L793.456 349.699C796.705 351.323 799.146 353.007 800.775 354.751C802.459 356.495 803.299 358.904 803.299 361.983C803.299 364.887 802.515 367.356 800.95 369.389C799.38 371.422 797.315 372.991 794.759 374.093C792.263 375.139 789.593 375.662 786.743 375.662ZM827.037 375.662C823.435 375.662 820.562 374.735 818.41 372.877C816.322 371.018 815.276 367.994 815.276 363.814V334.973H809.788V332.009C814.143 329.568 817.598 326.287 820.154 322.161H823.205V329.306V331.834V361.198C823.205 363.465 823.582 365.177 824.339 366.338C825.091 367.503 826.11 368.288 827.386 368.692C828.721 369.04 830.176 369.215 831.745 369.215C833.484 369.215 835.113 368.953 836.623 368.43C838.192 367.907 839.587 367.297 840.803 366.599L842.373 368.43C840.455 370.408 838.192 372.119 835.577 373.574C832.961 374.964 830.116 375.662 827.037 375.662ZM819.369 334.973V329.48H841.414V331.137L839.151 334.973H819.369ZM368.828 462.849C362.264 462.849 356.542 461.541 351.662 458.93C346.783 456.255 343.007 452.625 340.335 448.036C337.721 443.447 336.414 438.221 336.414 432.352C336.414 427.937 337.198 423.784 338.766 419.893C340.393 416.002 342.688 412.574 345.65 409.61C348.671 406.65 352.272 404.323 356.455 402.639C360.637 400.955 365.284 400.116 370.396 400.116C374.52 400.116 378.209 400.551 381.462 401.419C384.773 402.236 388.055 403.424 391.308 404.993V416.667H388.259C387.271 412.602 385.064 409.495 381.636 407.347C378.267 405.195 374.056 404.122 369.002 404.122C363.948 404.122 359.649 405.255 356.106 407.522C352.563 409.784 349.862 412.863 348.003 416.755C346.144 420.65 345.215 425.092 345.215 430.089C345.215 433.632 345.737 437.115 346.783 440.543C347.887 443.971 349.484 447.077 351.575 449.867C353.667 452.597 356.252 454.777 359.33 456.402C362.467 458.031 366.068 458.843 370.135 458.843C372.981 458.843 375.479 458.522 377.628 457.884C379.836 457.186 381.723 455.791 383.292 453.699C384.919 451.611 386.283 448.532 387.387 444.466H390.437V458.32C386.313 459.944 382.45 461.105 378.848 461.803C375.247 462.5 371.907 462.849 368.828 462.849ZM396.95 461.977V459.017L399.215 458.668C401.133 458.379 402.382 457.856 402.962 457.099C403.601 456.342 403.921 455.066 403.921 453.267V404.122C403.921 402.089 403.427 400.726 402.439 400.028C401.452 399.331 399.68 398.863 397.124 398.633V396.105L410.543 392.273H411.763V422.247H412.286C414.028 420.678 415.684 419.43 417.252 418.498C418.821 417.571 420.476 416.901 422.219 416.493C423.961 416.029 425.936 415.8 428.144 415.8C432.268 415.8 435.492 416.842 437.816 418.934C440.197 420.967 441.388 423.872 441.388 427.648V453.267C441.388 455.066 441.679 456.342 442.26 457.099C442.899 457.856 444.176 458.379 446.094 458.668L448.359 459.017V461.977H426.576V459.017L428.841 458.668C430.758 458.379 432.007 457.856 432.588 457.099C433.227 456.342 433.546 455.066 433.546 453.267V430.613C433.546 428.346 433.14 426.574 432.326 425.294C431.513 423.959 430.351 423 428.841 422.422C427.331 421.839 425.501 421.55 423.351 421.55C421.028 421.55 418.966 421.926 417.165 422.683C415.364 423.436 413.564 424.569 411.763 426.079V453.267C411.763 455.066 412.053 456.342 412.634 457.099C413.273 457.856 414.551 458.379 416.468 458.668L418.733 459.017V461.977H396.95ZM471.182 462.849C467.116 462.849 463.892 461.803 461.51 459.715C459.186 457.622 458.025 454.718 458.025 451.001V425.033C458.025 423.119 457.531 421.898 456.544 421.375C455.556 420.793 453.929 420.416 451.664 420.242V417.714L464.385 415.97H465.867V448.036C465.867 450.303 466.273 452.102 467.087 453.437C467.9 454.717 469.062 455.649 470.572 456.227C472.082 456.81 473.883 457.099 475.974 457.099C478.24 457.099 480.244 456.723 481.987 455.966C483.787 455.213 485.53 453.992 487.215 452.308V425.033C487.215 423.119 486.691 421.898 485.646 421.375C484.659 420.793 482.916 420.416 480.418 420.242V417.714L493.575 415.97H495.057V450.652C495.057 452.57 495.465 453.933 496.277 454.745C497.149 455.502 498.888 456.053 501.504 456.402H502.027V459.017L488.697 462.151H487.476V456.14H486.953C484.223 458.522 481.696 460.238 479.372 461.279C477.049 462.326 474.319 462.849 471.182 462.849ZM506.308 461.977V459.017L508.662 458.668C510.521 458.434 511.742 457.943 512.32 457.186C512.962 456.429 513.279 455.126 513.279 453.267V427.997C513.279 426.079 512.815 424.744 511.884 423.986C510.957 423.234 509.153 422.738 506.483 422.509V419.98L519.639 416.144H520.86V423.119H521.644C523.039 421.141 524.783 419.457 526.871 418.062C528.963 416.667 531.432 415.97 534.277 415.97C536.37 415.97 537.939 416.406 538.985 417.278C540.086 418.094 540.642 419.223 540.642 420.678C540.642 421.665 540.261 422.536 539.508 423.293C538.751 424.046 537.879 424.569 536.893 424.858C535.906 425.092 534.947 424.945 534.015 424.422L530.097 422.247C529.34 421.779 528.468 421.779 527.481 422.247C526.554 422.651 525.623 423.261 524.696 424.074C523.764 424.89 522.98 425.703 522.342 426.515C521.704 427.327 521.295 427.91 521.121 428.259V453.267C521.121 455.126 521.47 456.429 522.167 457.186C522.924 457.884 524.374 458.347 526.522 458.581L529.835 459.017V461.977H506.308ZM564.283 462.849C560.043 462.849 556.267 461.862 552.953 459.889C549.705 457.856 547.149 455.126 545.286 451.698C543.427 448.211 542.5 444.292 542.5 439.932C542.5 435.289 543.514 431.163 545.547 427.561C547.64 423.899 550.485 421.027 554.087 418.934C557.689 416.842 561.755 415.8 566.288 415.8C569.308 415.8 571.923 416.204 574.131 417.016C576.393 417.833 578.137 418.819 579.357 419.98C580.633 421.141 581.275 422.247 581.275 423.293C581.275 424.22 580.807 425.005 579.88 425.643C578.949 426.281 577.903 426.689 576.742 426.864C575.64 426.978 574.828 426.804 574.305 426.34L569.074 421.637C568.262 420.939 567.417 420.476 566.55 420.242C565.733 419.953 564.779 419.806 563.673 419.806C561.002 419.806 558.648 420.563 556.615 422.073C554.642 423.523 553.1 425.556 551.999 428.171C550.953 430.727 550.43 433.632 550.43 436.885C550.43 440.717 551.155 444.117 552.605 447.077C554.119 450.042 556.179 452.396 558.795 454.135C561.466 455.823 564.485 456.663 567.853 456.663C569.886 456.663 571.891 456.314 573.869 455.617C575.842 454.919 577.903 453.758 580.055 452.134L581.799 453.786C579.068 456.984 576.278 459.306 573.433 460.761C570.584 462.151 567.537 462.849 564.283 462.849ZM585.938 461.977V459.017L588.204 458.668C590.123 458.379 591.371 457.856 591.949 457.099C592.591 456.342 592.908 455.066 592.908 453.267V404.122C592.908 402.089 592.417 400.726 591.426 400.028C590.439 399.331 588.668 398.863 586.112 398.633V396.105L599.53 392.273H600.75V422.247H601.273C603.017 420.678 604.674 419.43 606.238 418.498C607.808 417.571 609.464 416.901 611.208 416.493C612.952 416.029 614.925 415.8 617.132 415.8C621.258 415.8 624.479 416.842 626.805 418.934C629.187 420.967 630.375 423.872 630.375 427.648V453.267C630.375 455.066 630.665 456.342 631.247 457.099C631.885 457.856 633.165 458.379 635.084 458.668L637.346 459.017V461.977H615.563V459.017L617.83 458.668C619.748 458.379 620.996 457.856 621.574 457.099C622.217 456.342 622.533 455.066 622.533 453.267V430.613C622.533 428.346 622.129 426.574 621.313 425.294C620.5 423.959 619.339 423 617.83 422.422C616.32 421.839 614.489 421.55 612.341 421.55C610.015 421.55 607.955 421.926 606.151 422.683C604.352 423.436 602.554 424.569 600.75 426.079V453.267C600.75 455.066 601.039 456.342 601.622 457.099C602.26 457.856 603.54 458.379 605.458 458.668L607.721 459.017V461.977H585.938Z" fill="#223583"/>
<g clip-path="url(#clip1_1959_86)">
<path d="M645.122 64.2461L603.678 103.161C600.926 101.044 598.342 99.0037 595.708 97.0317C567.148 75.6657 534.992 62.8271 499.917 57.591C437.759 48.293 379.283 59.0689 325.675 92.3305C291.262 113.669 264.257 142.116 247.587 179.576C240.193 196.209 236.213 213.654 235.016 231.778C234.935 233.016 234.826 234.254 234.699 235.858C233.443 235.949 232.26 236.067 231.072 236.108C229.884 236.149 228.624 236.108 226.471 236.108C227.4 227.948 227.921 220.141 229.236 212.457C238.058 161.012 263.713 119.105 302.895 85.3582C342.789 50.9994 389.397 31.1794 441.345 23.7038C489.046 16.8266 536.134 19.1568 582.294 33.8223C603.562 40.5907 623.837 50.1537 642.588 62.2604C643.372 62.7772 644.089 63.4346 645.122 64.2461Z" fill="#223583"/>
<path d="M744.309 235.872H672.355C665.845 190.266 649.266 149.347 616.721 115.392L659.185 75.4573C696.522 96.9955 740.483 179.785 744.309 235.872Z" fill="#223583"/>
<path d="M868.922 290.744C817.524 271.341 764.686 255.989 710.892 244.83C676.311 237.64 641.474 232.2 606.379 228.51C569.136 224.578 531.713 222.611 494.263 222.616H476.528C349.393 222.594 222.127 245.311 101.869 290.744C143.305 265.856 190.661 246.009 241.498 231.221H241.53C315.012 209.841 395.734 199.033 476.27 198.829H494.544C530.974 198.903 567.366 201.174 603.523 205.63C646.763 210.988 689.064 219.506 729.203 231.18C780.036 245.981 827.428 265.833 868.922 290.744Z" fill="#223583"/>
</g>
</g>
<defs>
<clipPath id="clip0_1959_86">
<rect width="761.738" height="491" fill="white" transform="translate(105)"/>
</clipPath>
<clipPath id="clip1_1959_86">
<rect width="767.035" height="270.744" fill="white" transform="translate(101.869 20)"/>
</clipPath>
</defs>
</svg>
