<svg width="27" height="27" viewBox="0 0 27 27" fill="none" xmlns="http://www.w3.org/2000/svg">
<g clip-path="url(#clip0_1699_417)">
<path d="M13.4211 0C6.00887 0 0 6.00887 0 13.4211C0 19.715 4.33339 24.9964 10.1791 26.447V17.5225H7.41164V13.4211H10.1791V11.6538C10.1791 7.08578 12.2464 4.96847 16.7312 4.96847C17.5816 4.96847 19.0488 5.13543 19.649 5.30185V9.01948C19.3322 8.9862 18.782 8.96956 18.0986 8.96956C15.898 8.96956 15.0477 9.80327 15.0477 11.9705V13.4211H19.4315L18.6783 17.5225H15.0477V26.7439C21.6933 25.9413 26.8426 20.283 26.8426 13.4211C26.8421 6.00887 20.8332 0 13.4211 0Z" fill="white"/>
</g>
<defs>
<clipPath id="clip0_1699_417">
<rect width="26.8421" height="26.8421" fill="white"/>
</clipPath>
</defs>
</svg>
