<svg width="27" height="27" viewBox="0 0 27 27" fill="none" xmlns="http://www.w3.org/2000/svg">
<g clip-path="url(#clip0_1699_419)">
<path d="M13.4211 2.41684C17.007 2.41684 17.4316 2.43257 18.8419 2.49548C20.1526 2.55315 20.8603 2.77333 21.3321 2.95683C21.956 3.19799 22.4069 3.49157 22.8735 3.95816C23.3453 4.43 23.6336 4.87562 23.8748 5.49949C24.0583 5.97132 24.2785 6.68431 24.3361 7.98972C24.3991 9.40522 24.4148 9.82987 24.4148 13.4106C24.4148 16.9965 24.3991 17.4212 24.3361 18.8314C24.2785 20.1421 24.0583 20.8498 23.8748 21.3217C23.6336 21.9455 23.34 22.3964 22.8735 22.863C22.4016 23.3348 21.956 23.6232 21.3321 23.8643C20.8603 24.0478 20.1473 24.268 18.8419 24.3257C17.4264 24.3886 17.0017 24.4043 13.4211 24.4043C9.83512 24.4043 9.41047 24.3886 8.00021 24.3257C6.68956 24.268 5.98181 24.0478 5.50997 23.8643C4.8861 23.6232 4.43524 23.3296 3.96865 22.863C3.49681 22.3911 3.20847 21.9455 2.96731 21.3217C2.78382 20.8498 2.56363 20.1368 2.50596 18.8314C2.44305 17.4159 2.42732 16.9913 2.42732 13.4106C2.42732 9.82463 2.44305 9.39998 2.50596 7.98972C2.56363 6.67907 2.78382 5.97132 2.96731 5.49949C3.20847 4.87562 3.50206 4.42475 3.96865 3.95816C4.44048 3.48633 4.8861 3.19799 5.50997 2.95683C5.98181 2.77333 6.6948 2.55315 8.00021 2.49548C9.41047 2.43257 9.83512 2.41684 13.4211 2.41684ZM13.4211 0C9.77745 0 9.32134 0.0157278 7.89011 0.078639C6.46412 0.14155 5.48376 0.372224 4.63446 0.702508C3.74846 1.04852 2.99877 1.50463 2.25432 2.25432C1.50463 2.99877 1.04852 3.74846 0.702508 4.62922C0.372225 5.48376 0.14155 6.45888 0.078639 7.88487C0.0157278 9.32134 0 9.77745 0 13.4211C0 17.0647 0.0157278 17.5208 0.078639 18.952C0.14155 20.378 0.372225 21.3583 0.702508 22.2076C1.04852 23.0936 1.50463 23.8433 2.25432 24.5878C2.99877 25.3322 3.74846 25.7936 4.62922 26.1344C5.48376 26.4646 6.45888 26.6953 7.88487 26.7582C9.3161 26.8211 9.7722 26.8369 13.4158 26.8369C17.0594 26.8369 17.5155 26.8211 18.9468 26.7582C20.3727 26.6953 21.3531 26.4646 22.2024 26.1344C23.0832 25.7936 23.8329 25.3322 24.5773 24.5878C25.3218 23.8433 25.7831 23.0936 26.1239 22.2129C26.4542 21.3583 26.6848 20.3832 26.7477 18.9572C26.8107 17.526 26.8264 17.0699 26.8264 13.4263C26.8264 9.78269 26.8107 9.32658 26.7477 7.89535C26.6848 6.46937 26.4542 5.489 26.1239 4.6397C25.7936 3.74846 25.3375 2.99877 24.5878 2.25432C23.8433 1.50987 23.0936 1.04852 22.2129 0.707751C21.3583 0.377467 20.3832 0.146793 18.9572 0.0838816C17.5208 0.0157278 17.0647 0 13.4211 0Z" fill="white"/>
<path d="M13.4209 6.52686C9.61475 6.52686 6.52686 9.61475 6.52686 13.4209C6.52686 17.227 9.61475 20.3149 13.4209 20.3149C17.227 20.3149 20.3149 17.227 20.3149 13.4209C20.3149 9.61475 17.227 6.52686 13.4209 6.52686ZM13.4209 17.8928C10.9516 17.8928 8.94894 15.8901 8.94894 13.4209C8.94894 10.9516 10.9516 8.94894 13.4209 8.94894C15.8901 8.94894 17.8928 10.9516 17.8928 13.4209C17.8928 15.8901 15.8901 17.8928 13.4209 17.8928Z" fill="white"/>
<path d="M22.197 6.2545C22.197 7.14574 21.4735 7.86398 20.5875 7.86398C19.6963 7.86398 18.978 7.1405 18.978 6.2545C18.978 5.36326 19.7015 4.64502 20.5875 4.64502C21.4735 4.64502 22.197 5.3685 22.197 6.2545Z" fill="white"/>
</g>
<defs>
<clipPath id="clip0_1699_419">
<rect width="26.8421" height="26.8421" fill="white"/>
</clipPath>
</defs>
</svg>
