<svg width="27" height="27" viewBox="0 0 27 27" fill="none" xmlns="http://www.w3.org/2000/svg">
<path d="M0 26.8421L1.88678 19.9493C0.7225 17.9316 0.110724 15.6445 0.111842 13.2991C0.115197 5.96678 6.08197 0 13.4132 0C16.9709 0.00111842 20.3105 1.38684 22.8225 3.90105C25.3334 6.41526 26.7157 9.75711 26.7146 13.3114C26.7113 20.6449 20.7445 26.6117 13.4132 26.6117C11.1876 26.6106 8.99434 26.0525 7.05164 24.9922L0 26.8421ZM7.37822 22.5843C9.2527 23.6971 11.0422 24.3637 13.4087 24.3648C19.5019 24.3648 24.4655 19.4057 24.4688 13.3092C24.4711 7.20039 19.531 2.24803 13.4177 2.24579C7.32007 2.24579 2.35987 7.20487 2.35763 13.3003C2.35651 15.7888 3.08572 17.652 4.31039 19.6014L3.19309 23.6814L7.37822 22.5843ZM20.1137 16.4732C20.0309 16.3345 19.8095 16.2518 19.4762 16.0851C19.144 15.9185 17.51 15.1143 17.2047 15.0036C16.9005 14.8929 16.679 14.837 16.4564 15.1703C16.235 15.5024 15.5975 16.2518 15.404 16.4732C15.2105 16.6947 15.0159 16.7226 14.6838 16.556C14.3516 16.3893 13.2801 16.0393 12.0107 14.9063C11.0232 14.025 10.3555 12.9368 10.162 12.6035C9.96849 12.2713 10.1418 12.0913 10.3074 11.9257C10.4572 11.777 10.6395 11.5376 10.8062 11.343C10.9751 11.1507 11.0299 11.012 11.1417 10.7894C11.2524 10.568 11.1976 10.3734 11.1138 10.2067C11.0299 10.0412 10.3655 8.40493 10.0893 7.73947C9.81862 7.09191 9.54461 7.17914 9.34105 7.16908L8.70355 7.1579C8.48211 7.1579 8.12197 7.24066 7.81776 7.57395C7.51355 7.90724 6.65461 8.71026 6.65461 10.3465C6.65461 11.9828 7.84572 13.5631 8.01125 13.7845C8.17789 14.006 10.3543 17.3635 13.6884 18.8029C14.4813 19.1451 15.1009 19.3498 15.583 19.503C16.3793 19.7558 17.104 19.72 17.6766 19.635C18.3153 19.5399 19.6428 18.8309 19.9202 18.0547C20.1976 17.2774 20.1976 16.6119 20.1137 16.4732Z" fill="white"/>
</svg>
