<svg width="253" height="355" viewBox="0 0 253 355" fill="none" xmlns="http://www.w3.org/2000/svg">
<g clip-path="url(#clip0_1707_1050)">
<rect width="253" height="355" rx="11" fill="url(#paint0_radial_1707_1050)"/>
<path d="M150.132 337L153.537 329.574H154.253L157.657 337H155.983L153.911 331.91L151.807 337H150.132ZM151.84 335.502V334.323H155.972V335.502H151.84ZM162.54 337.165C162.004 337.165 161.501 337.07 161.031 336.879C160.561 336.688 160.146 336.423 159.786 336.086C159.426 335.74 159.143 335.333 158.938 334.863C158.739 334.385 158.64 333.867 158.64 333.309C158.64 332.751 158.739 332.237 158.938 331.767C159.143 331.289 159.426 330.882 159.786 330.544C160.146 330.198 160.561 329.93 161.031 329.739C161.501 329.548 162.004 329.453 162.54 329.453C163.018 329.453 163.425 329.519 163.763 329.651C164.101 329.783 164.395 329.963 164.645 330.191V331.645C164.476 331.506 164.292 331.374 164.094 331.249C163.903 331.124 163.686 331.021 163.444 330.94C163.201 330.852 162.911 330.808 162.573 330.808C162.111 330.808 161.692 330.918 161.317 331.139C160.943 331.352 160.645 331.649 160.425 332.031C160.205 332.406 160.094 332.832 160.094 333.309C160.094 333.787 160.205 334.213 160.425 334.587C160.645 334.962 160.943 335.259 161.317 335.48C161.692 335.7 162.111 335.81 162.573 335.81C163.08 335.81 163.506 335.729 163.851 335.568C164.197 335.406 164.505 335.219 164.777 335.006V336.405C164.527 336.625 164.211 336.809 163.829 336.956C163.447 337.095 163.018 337.165 162.54 337.165ZM170.255 337.165C169.719 337.165 169.215 337.07 168.745 336.879C168.275 336.688 167.86 336.423 167.5 336.086C167.14 335.74 166.858 335.333 166.652 334.863C166.454 334.385 166.355 333.867 166.355 333.309C166.355 332.751 166.454 332.237 166.652 331.767C166.858 331.289 167.14 330.882 167.5 330.544C167.86 330.198 168.275 329.93 168.745 329.739C169.215 329.548 169.719 329.453 170.255 329.453C170.732 329.453 171.14 329.519 171.478 329.651C171.816 329.783 172.109 329.963 172.359 330.191V331.645C172.19 331.506 172.007 331.374 171.808 331.249C171.617 331.124 171.401 331.021 171.158 330.94C170.916 330.852 170.626 330.808 170.288 330.808C169.825 330.808 169.406 330.918 169.032 331.139C168.657 331.352 168.36 331.649 168.139 332.031C167.919 332.406 167.809 332.832 167.809 333.309C167.809 333.787 167.919 334.213 168.139 334.587C168.36 334.962 168.657 335.259 169.032 335.48C169.406 335.7 169.825 335.81 170.288 335.81C170.795 335.81 171.221 335.729 171.566 335.568C171.911 335.406 172.22 335.219 172.491 335.006V336.405C172.242 336.625 171.926 336.809 171.544 336.956C171.162 337.095 170.732 337.165 170.255 337.165ZM174.642 337V329.618H179.853V330.863H176.063V335.733H179.853V337H174.642ZM175.479 333.849V332.626H179.424V333.849H175.479ZM183.965 337.132C183.532 337.132 183.12 337.059 182.731 336.912C182.342 336.758 182.004 336.581 181.718 336.383V335.017C182.026 335.237 182.379 335.428 182.775 335.59C183.179 335.751 183.605 335.832 184.053 335.832C184.376 335.832 184.645 335.759 184.858 335.612C185.078 335.465 185.188 335.263 185.188 335.006C185.188 334.866 185.144 334.745 185.056 334.642C184.968 334.532 184.854 334.437 184.714 334.356C184.582 334.275 184.443 334.209 184.296 334.157L183.139 333.695C182.764 333.54 182.47 333.364 182.257 333.166C182.052 332.96 181.905 332.733 181.817 332.483C181.736 332.233 181.696 331.969 181.696 331.69C181.696 331.249 181.813 330.863 182.048 330.533C182.29 330.202 182.61 329.945 183.007 329.761C183.403 329.578 183.826 329.486 184.274 329.486C184.707 329.486 185.093 329.545 185.431 329.662C185.776 329.78 186.062 329.916 186.29 330.07V331.436C186.04 331.275 185.757 331.128 185.442 330.995C185.126 330.856 184.78 330.786 184.406 330.786C184.215 330.786 184.024 330.819 183.833 330.885C183.642 330.951 183.484 331.054 183.359 331.194C183.242 331.326 183.183 331.495 183.183 331.701C183.183 331.95 183.289 332.141 183.502 332.273C183.715 332.406 183.973 332.538 184.274 332.67L185.177 333.067C185.699 333.287 186.084 333.544 186.334 333.838C186.584 334.132 186.709 334.495 186.709 334.929C186.709 335.362 186.584 335.744 186.334 336.075C186.084 336.398 185.75 336.655 185.331 336.846C184.92 337.037 184.465 337.132 183.965 337.132ZM190.512 337.132C190.078 337.132 189.667 337.059 189.278 336.912C188.889 336.758 188.551 336.581 188.264 336.383V335.017C188.573 335.237 188.925 335.428 189.322 335.59C189.726 335.751 190.152 335.832 190.6 335.832C190.923 335.832 191.191 335.759 191.404 335.612C191.625 335.465 191.735 335.263 191.735 335.006C191.735 334.866 191.691 334.745 191.603 334.642C191.514 334.532 191.401 334.437 191.261 334.356C191.129 334.275 190.989 334.209 190.842 334.157L189.686 333.695C189.311 333.54 189.017 333.364 188.804 333.166C188.598 332.96 188.452 332.733 188.363 332.483C188.283 332.233 188.242 331.969 188.242 331.69C188.242 331.249 188.36 330.863 188.595 330.533C188.837 330.202 189.157 329.945 189.553 329.761C189.95 329.578 190.372 329.486 190.82 329.486C191.254 329.486 191.639 329.545 191.977 329.662C192.322 329.78 192.609 329.916 192.837 330.07V331.436C192.587 331.275 192.304 331.128 191.988 330.995C191.672 330.856 191.327 330.786 190.953 330.786C190.762 330.786 190.571 330.819 190.38 330.885C190.189 330.951 190.031 331.054 189.906 331.194C189.788 331.326 189.73 331.495 189.73 331.701C189.73 331.95 189.836 332.141 190.049 332.273C190.262 332.406 190.519 332.538 190.82 332.67L191.724 333.067C192.245 333.287 192.631 333.544 192.881 333.838C193.13 334.132 193.255 334.495 193.255 334.929C193.255 335.362 193.13 335.744 192.881 336.075C192.631 336.398 192.297 336.655 191.878 336.846C191.467 337.037 191.011 337.132 190.512 337.132ZM205.104 337.044L200.652 332.428V337H199.231V329.574H199.749L204.2 334.257V329.618H205.621V337.044H205.104ZM211.639 337.165C211.103 337.165 210.6 337.07 210.13 336.879C209.667 336.688 209.259 336.423 208.907 336.086C208.554 335.74 208.275 335.333 208.07 334.863C207.871 334.385 207.772 333.867 207.772 333.309C207.772 332.751 207.871 332.237 208.07 331.767C208.275 331.289 208.554 330.882 208.907 330.544C209.259 330.198 209.667 329.93 210.13 329.739C210.6 329.548 211.103 329.453 211.639 329.453C212.175 329.453 212.675 329.548 213.138 329.739C213.608 329.93 214.019 330.198 214.372 330.544C214.724 330.882 215 331.289 215.198 331.767C215.404 332.237 215.506 332.751 215.506 333.309C215.506 333.867 215.404 334.385 215.198 334.863C215 335.333 214.724 335.74 214.372 336.086C214.019 336.423 213.608 336.688 213.138 336.879C212.675 337.07 212.175 337.165 211.639 337.165ZM211.639 335.81C212.102 335.81 212.513 335.7 212.873 335.48C213.24 335.259 213.527 334.962 213.733 334.587C213.946 334.213 214.052 333.787 214.052 333.309C214.052 332.832 213.946 332.406 213.733 332.031C213.527 331.649 213.24 331.352 212.873 331.139C212.513 330.918 212.102 330.808 211.639 330.808C211.177 330.808 210.762 330.918 210.394 331.139C210.034 331.352 209.748 331.649 209.535 332.031C209.329 332.406 209.226 332.832 209.226 333.309C209.226 333.787 209.329 334.213 209.535 334.587C209.748 334.962 210.034 335.259 210.394 335.48C210.762 335.7 211.177 335.81 211.639 335.81ZM219.166 337L216.71 329.618H218.318L219.761 334.444L221.381 329.618L222.329 329.629L223.937 334.444L225.413 329.618H227.022L224.51 337H223.552L221.844 332.086L220.125 337H219.166ZM232.59 337V335.568L235.697 333.662L232.59 331.91V330.478L237.306 333.397V333.959L232.59 337Z" fill="white"/>
<circle cx="127" cy="-7.5" r="91.5" fill="#165BFF"/>
<circle cx="126.413" cy="-7.50961" r="74.4904" fill="#69C1FA"/>
<circle cx="127" cy="-8" r="40" fill="#EEEDED"/>
<path d="M21.7695 136V117.68H25.2969V136H21.7695ZM18.5703 136V132.91H28.4961V136H18.5703ZM18.5703 120.77V117.68H28.4961V120.77H18.5703ZM41.8814 136L41.8541 127.988C41.8541 126.986 41.6171 126.247 41.1431 125.773C40.6874 125.281 40.0403 125.035 39.2017 125.035C38.5637 125.035 37.9621 125.254 37.397 125.691C36.8319 126.111 36.3306 126.612 35.8931 127.195V124.242C36.1848 123.859 36.5403 123.495 36.9595 123.148C37.3788 122.784 37.8528 122.483 38.3814 122.246C38.9283 122.009 39.5116 121.891 40.1314 121.891C41.0793 121.891 41.927 122.1 42.6744 122.52C43.4218 122.939 44.0142 123.568 44.4517 124.406C44.8892 125.245 45.108 126.293 45.108 127.551V136H41.8814ZM32.6666 136V122.219H35.8931V136H32.6666ZM53.8722 136.41C53.0701 136.41 52.3409 136.237 51.6847 135.891C51.0467 135.526 50.5362 135.025 50.1534 134.387C49.7889 133.73 49.6066 132.965 49.6066 132.09V124.953H47.255V123.422C48.1482 123.076 48.8865 122.483 49.4698 121.645C50.0532 120.788 50.5636 119.721 51.0011 118.445H52.8331V122.219H57.0714V124.953H52.8331V131.324C52.8331 131.944 52.9972 132.427 53.3253 132.773C53.6717 133.12 54.1456 133.293 54.7472 133.293C55.2941 133.293 55.768 133.22 56.1691 133.074C56.5883 132.91 56.9529 132.737 57.2628 132.555V135.316C56.9347 135.645 56.479 135.909 55.8956 136.109C55.3305 136.31 54.656 136.41 53.8722 136.41ZM60.3395 136V122.219H63.5661V136H60.3395ZM63.5661 128.18V124.844C64.0583 124.005 64.6325 123.312 65.2887 122.766C65.9632 122.219 66.7106 121.945 67.5309 121.945C68.0414 121.945 68.488 122.036 68.8708 122.219V125.855C68.5973 125.691 68.3148 125.564 68.0231 125.473C67.7315 125.382 67.4124 125.336 67.0661 125.336C66.2458 125.336 65.5622 125.609 65.0153 126.156C64.4867 126.703 64.0036 127.378 63.5661 128.18ZM77.4162 136.41C76.3954 136.41 75.4384 136.228 74.5452 135.863C73.6702 135.48 72.8954 134.961 72.2209 134.305C71.5465 133.648 71.0178 132.883 70.635 132.008C70.2522 131.115 70.0608 130.167 70.0608 129.164C70.0608 128.143 70.2522 127.195 70.635 126.32C71.0178 125.445 71.5465 124.68 72.2209 124.023C72.8954 123.349 73.6702 122.829 74.5452 122.465C75.4384 122.082 76.3954 121.891 77.4162 121.891C78.4189 121.891 79.3577 122.082 80.2327 122.465C81.1259 122.829 81.9097 123.349 82.5842 124.023C83.2769 124.68 83.8056 125.445 84.1702 126.32C84.553 127.195 84.7444 128.143 84.7444 129.164C84.7444 130.167 84.553 131.115 84.1702 132.008C83.8056 132.883 83.2769 133.648 82.5842 134.305C81.9097 134.961 81.1259 135.48 80.2327 135.863C79.3577 136.228 78.4189 136.41 77.4162 136.41ZM77.4162 133.293C78.1454 133.293 78.8017 133.129 79.385 132.801C79.9866 132.454 80.4605 131.971 80.8069 131.352C81.1532 130.732 81.3264 130.003 81.3264 129.164C81.3264 128.307 81.1532 127.569 80.8069 126.949C80.4605 126.329 79.9866 125.855 79.385 125.527C78.8017 125.181 78.1454 125.008 77.4162 125.008C76.7053 125.008 76.0491 125.181 75.4475 125.527C74.8459 125.855 74.3629 126.329 73.9983 126.949C73.6519 127.569 73.4787 128.307 73.4787 129.164C73.4787 130.003 73.6519 130.732 73.9983 131.352C74.3629 131.971 74.8459 132.454 75.4475 132.801C76.0491 133.129 76.7053 133.293 77.4162 133.293ZM92.825 136.41C91.713 136.41 90.6831 136.128 89.7352 135.562C88.7872 134.997 88.0216 134.177 87.4383 133.102C86.8732 132.026 86.5906 130.732 86.5906 129.219C86.5906 127.688 86.8732 126.375 87.4383 125.281C88.0216 124.188 88.8055 123.349 89.7898 122.766C90.7742 122.182 91.868 121.891 93.0711 121.891C93.8185 121.891 94.575 122.073 95.3406 122.438C96.1245 122.784 96.7807 123.249 97.3094 123.832V116.312H100.536V136H97.3094V133.676C96.8901 134.423 96.2885 135.07 95.5047 135.617C94.7391 136.146 93.8458 136.41 92.825 136.41ZM93.5906 133.184C94.2469 133.184 94.8575 133.01 95.4227 132.664C95.9878 132.318 96.4435 131.835 96.7898 131.215C97.1362 130.577 97.3094 129.829 97.3094 128.973L97.282 126.867C96.7898 126.302 96.243 125.865 95.6414 125.555C95.0581 125.227 94.4109 125.062 93.7 125.062C92.9344 125.062 92.269 125.263 91.7039 125.664C91.1388 126.047 90.7013 126.557 90.3914 127.195C90.0997 127.815 89.9539 128.49 89.9539 129.219C89.9539 129.948 90.0997 130.613 90.3914 131.215C90.7013 131.816 91.1297 132.299 91.6766 132.664C92.2234 133.01 92.8615 133.184 93.5906 133.184ZM110.148 136.328C108.963 136.328 107.906 136.091 106.976 135.617C106.064 135.143 105.335 134.469 104.788 133.594C104.26 132.701 103.995 131.643 103.995 130.422V122.219H107.277V129.93C107.277 131.005 107.55 131.826 108.097 132.391C108.644 132.938 109.327 133.211 110.148 133.211C110.968 133.211 111.643 132.938 112.171 132.391C112.718 131.826 112.992 131.005 112.992 129.93V122.219H116.3V130.422C116.3 131.643 116.027 132.701 115.48 133.594C114.951 134.469 114.222 135.143 113.292 135.617C112.363 136.091 111.314 136.328 110.148 136.328ZM126.021 136.41C124.982 136.41 124.025 136.219 123.15 135.836C122.275 135.453 121.51 134.924 120.853 134.25C120.197 133.576 119.687 132.81 119.322 131.953C118.976 131.078 118.803 130.158 118.803 129.191C118.803 128.225 118.976 127.305 119.322 126.43C119.687 125.555 120.197 124.78 120.853 124.105C121.51 123.413 122.275 122.875 123.15 122.492C124.025 122.091 124.982 121.891 126.021 121.891C127.06 121.891 127.908 122.055 128.564 122.383C129.239 122.711 129.749 123.021 130.096 123.312V126.32C129.622 125.974 129.084 125.682 128.482 125.445C127.881 125.19 127.143 125.062 126.268 125.062C125.52 125.062 124.837 125.245 124.217 125.609C123.597 125.974 123.105 126.466 122.74 127.086C122.394 127.706 122.221 128.408 122.221 129.191C122.221 129.957 122.394 130.65 122.74 131.27C123.087 131.889 123.56 132.382 124.162 132.746C124.782 133.111 125.484 133.293 126.268 133.293C127.143 133.293 127.881 133.174 128.482 132.938C129.084 132.682 129.622 132.382 130.096 132.035V135.043C129.749 135.353 129.239 135.663 128.564 135.973C127.908 136.264 127.06 136.41 126.021 136.41ZM138.368 136.41C137.566 136.41 136.836 136.237 136.18 135.891C135.542 135.526 135.032 135.025 134.649 134.387C134.284 133.73 134.102 132.965 134.102 132.09V124.953H131.75V123.422C132.644 123.076 133.382 122.483 133.965 121.645C134.549 120.788 135.059 119.721 135.497 118.445H137.329V122.219H141.567V124.953H137.329V131.324C137.329 131.944 137.493 132.427 137.821 132.773C138.167 133.12 138.641 133.293 139.243 133.293C139.79 133.293 140.263 133.22 140.665 133.074C141.084 132.91 141.448 132.737 141.758 132.555V135.316C141.43 135.645 140.974 135.909 140.391 136.109C139.826 136.31 139.152 136.41 138.368 136.41ZM147.542 119.648C146.922 119.648 146.384 119.43 145.929 118.992C145.491 118.536 145.272 118.008 145.272 117.406C145.272 116.786 145.491 116.258 145.929 115.82C146.384 115.383 146.922 115.164 147.542 115.164C147.961 115.164 148.344 115.264 148.69 115.465C149.037 115.665 149.31 115.939 149.511 116.285C149.73 116.632 149.839 117.005 149.839 117.406C149.839 117.789 149.73 118.163 149.511 118.527C149.31 118.874 149.037 119.147 148.69 119.348C148.344 119.548 147.961 119.648 147.542 119.648ZM146.284 136V122.219H149.511V136H146.284ZM144.069 125.008V122.219H149.511V125.008H144.069ZM159.724 136.41C158.703 136.41 157.746 136.228 156.853 135.863C155.978 135.48 155.203 134.961 154.529 134.305C153.854 133.648 153.326 132.883 152.943 132.008C152.56 131.115 152.369 130.167 152.369 129.164C152.369 128.143 152.56 127.195 152.943 126.32C153.326 125.445 153.854 124.68 154.529 124.023C155.203 123.349 155.978 122.829 156.853 122.465C157.746 122.082 158.703 121.891 159.724 121.891C160.727 121.891 161.666 122.082 162.541 122.465C163.434 122.829 164.218 123.349 164.892 124.023C165.585 124.68 166.114 125.445 166.478 126.32C166.861 127.195 167.052 128.143 167.052 129.164C167.052 130.167 166.861 131.115 166.478 132.008C166.114 132.883 165.585 133.648 164.892 134.305C164.218 134.961 163.434 135.48 162.541 135.863C161.666 136.228 160.727 136.41 159.724 136.41ZM159.724 133.293C160.453 133.293 161.11 133.129 161.693 132.801C162.295 132.454 162.768 131.971 163.115 131.352C163.461 130.732 163.634 130.003 163.634 129.164C163.634 128.307 163.461 127.569 163.115 126.949C162.768 126.329 162.295 125.855 161.693 125.527C161.11 125.181 160.453 125.008 159.724 125.008C159.013 125.008 158.357 125.181 157.755 125.527C157.154 125.855 156.671 126.329 156.306 126.949C155.96 127.569 155.787 128.307 155.787 129.164C155.787 130.003 155.96 130.732 156.306 131.352C156.671 131.971 157.154 132.454 157.755 132.801C158.357 133.129 159.013 133.293 159.724 133.293ZM179.07 136L179.043 127.988C179.043 126.986 178.806 126.247 178.332 125.773C177.876 125.281 177.229 125.035 176.391 125.035C175.753 125.035 175.151 125.254 174.586 125.691C174.021 126.111 173.52 126.612 173.082 127.195V124.242C173.374 123.859 173.729 123.495 174.149 123.148C174.568 122.784 175.042 122.483 175.57 122.246C176.117 122.009 176.701 121.891 177.32 121.891C178.268 121.891 179.116 122.1 179.863 122.52C180.611 122.939 181.203 123.568 181.641 124.406C182.078 125.245 182.297 126.293 182.297 127.551V136H179.07ZM169.856 136V122.219H173.082V136H169.856ZM199.033 136.41C198.23 136.41 197.501 136.237 196.845 135.891C196.207 135.526 195.697 135.025 195.314 134.387C194.949 133.73 194.767 132.965 194.767 132.09V124.953H192.415V123.422C193.309 123.076 194.047 122.483 194.63 121.645C195.213 120.788 195.724 119.721 196.161 118.445H197.993V122.219H202.232V124.953H197.993V131.324C197.993 131.944 198.158 132.427 198.486 132.773C198.832 133.12 199.306 133.293 199.908 133.293C200.454 133.293 200.928 133.22 201.329 133.074C201.749 132.91 202.113 132.737 202.423 132.555V135.316C202.095 135.645 201.639 135.909 201.056 136.109C200.491 136.31 199.816 136.41 199.033 136.41ZM211.789 136.41C210.768 136.41 209.811 136.228 208.918 135.863C208.043 135.48 207.268 134.961 206.594 134.305C205.919 133.648 205.39 132.883 205.008 132.008C204.625 131.115 204.433 130.167 204.433 129.164C204.433 128.143 204.625 127.195 205.008 126.32C205.39 125.445 205.919 124.68 206.594 124.023C207.268 123.349 208.043 122.829 208.918 122.465C209.811 122.082 210.768 121.891 211.789 121.891C212.792 121.891 213.73 122.082 214.605 122.465C215.499 122.829 216.282 123.349 216.957 124.023C217.65 124.68 218.178 125.445 218.543 126.32C218.926 127.195 219.117 128.143 219.117 129.164C219.117 130.167 218.926 131.115 218.543 132.008C218.178 132.883 217.65 133.648 216.957 134.305C216.282 134.961 215.499 135.48 214.605 135.863C213.73 136.228 212.792 136.41 211.789 136.41ZM211.789 133.293C212.518 133.293 213.174 133.129 213.758 132.801C214.359 132.454 214.833 131.971 215.18 131.352C215.526 130.732 215.699 130.003 215.699 129.164C215.699 128.307 215.526 127.569 215.18 126.949C214.833 126.329 214.359 125.855 213.758 125.527C213.174 125.181 212.518 125.008 211.789 125.008C211.078 125.008 210.422 125.181 209.82 125.527C209.219 125.855 208.736 126.329 208.371 126.949C208.025 127.569 207.851 128.307 207.851 129.164C207.851 130.003 208.025 130.732 208.371 131.352C208.736 131.971 209.219 132.454 209.82 132.801C210.422 133.129 211.078 133.293 211.789 133.293ZM26.9375 164.41C25.6068 164.41 24.3581 164.173 23.1914 163.699C22.0247 163.225 20.9948 162.569 20.1016 161.73C19.2083 160.874 18.5065 159.862 17.9961 158.695C17.5039 157.51 17.2578 156.225 17.2578 154.84C17.2578 153.454 17.5039 152.178 17.9961 151.012C18.5065 149.827 19.2083 148.815 20.1016 147.977C20.9948 147.12 22.0247 146.454 23.1914 145.98C24.3581 145.507 25.6068 145.27 26.9375 145.27C28.1224 145.27 29.1341 145.434 29.9727 145.762C30.8112 146.09 31.5404 146.536 32.1602 147.102V150.711C31.7409 150.365 31.2852 150.036 30.793 149.727C30.319 149.417 29.7812 149.161 29.1797 148.961C28.5781 148.742 27.8581 148.633 27.0195 148.633C25.8711 148.633 24.832 148.906 23.9023 149.453C22.9727 149.982 22.2344 150.72 21.6875 151.668C21.1406 152.598 20.8672 153.655 20.8672 154.84C20.8672 156.025 21.1406 157.082 21.6875 158.012C22.2344 158.941 22.9727 159.68 23.9023 160.227C24.832 160.773 25.8711 161.047 27.0195 161.047C27.7487 161.047 28.3503 160.974 28.8242 160.828C29.3164 160.682 29.7083 160.509 30 160.309C30.3099 160.09 30.556 159.898 30.7383 159.734L33.8555 161.539C33.3633 162.068 32.7708 162.551 32.0781 162.988C31.3854 163.408 30.6016 163.745 29.7266 164C28.8698 164.273 27.9401 164.41 26.9375 164.41ZM30.4922 163.18V156.699H27.2383V154.074H33.8555V161.539L30.4922 163.18ZM43.1119 164.41C42.091 164.41 41.134 164.228 40.2408 163.863C39.3658 163.48 38.591 162.961 37.9166 162.305C37.2421 161.648 36.7134 160.883 36.3306 160.008C35.9478 159.115 35.7564 158.167 35.7564 157.164C35.7564 156.143 35.9478 155.195 36.3306 154.32C36.7134 153.445 37.2421 152.68 37.9166 152.023C38.591 151.349 39.3658 150.829 40.2408 150.465C41.134 150.082 42.091 149.891 43.1119 149.891C44.1145 149.891 45.0533 150.082 45.9283 150.465C46.8215 150.829 47.6054 151.349 48.2798 152.023C48.9726 152.68 49.5012 153.445 49.8658 154.32C50.2486 155.195 50.44 156.143 50.44 157.164C50.44 158.167 50.2486 159.115 49.8658 160.008C49.5012 160.883 48.9726 161.648 48.2798 162.305C47.6054 162.961 46.8215 163.48 45.9283 163.863C45.0533 164.228 44.1145 164.41 43.1119 164.41ZM43.1119 161.293C43.841 161.293 44.4973 161.129 45.0806 160.801C45.6822 160.454 46.1561 159.971 46.5025 159.352C46.8489 158.732 47.022 158.003 47.022 157.164C47.022 156.307 46.8489 155.569 46.5025 154.949C46.1561 154.329 45.6822 153.855 45.0806 153.527C44.4973 153.181 43.841 153.008 43.1119 153.008C42.4009 153.008 41.7447 153.181 41.1431 153.527C40.5416 153.855 40.0585 154.329 39.6939 154.949C39.3476 155.569 39.1744 156.307 39.1744 157.164C39.1744 158.003 39.3476 158.732 39.6939 159.352C40.0585 159.971 40.5416 160.454 41.1431 160.801C41.7447 161.129 42.4009 161.293 43.1119 161.293ZM58.5206 164.41C57.4086 164.41 56.3787 164.128 55.4308 163.562C54.4829 162.997 53.7172 162.177 53.1339 161.102C52.5688 160.026 52.2863 158.732 52.2863 157.219C52.2863 155.688 52.5688 154.375 53.1339 153.281C53.7172 152.188 54.5011 151.349 55.4855 150.766C56.4698 150.182 57.5636 149.891 58.7667 149.891C59.5141 149.891 60.2706 150.073 61.0363 150.438C61.8201 150.784 62.4764 151.249 63.005 151.832V144.312H66.2316V164H63.005V161.676C62.5857 162.423 61.9842 163.07 61.2003 163.617C60.4347 164.146 59.5415 164.41 58.5206 164.41ZM59.2863 161.184C59.9425 161.184 60.5532 161.01 61.1183 160.664C61.6834 160.318 62.1391 159.835 62.4855 159.215C62.8318 158.577 63.005 157.829 63.005 156.973L62.9777 154.867C62.4855 154.302 61.9386 153.865 61.337 153.555C60.7537 153.227 60.1066 153.062 59.3956 153.062C58.63 153.062 57.9646 153.263 57.3995 153.664C56.8344 154.047 56.3969 154.557 56.087 155.195C55.7954 155.815 55.6495 156.49 55.6495 157.219C55.6495 157.948 55.7954 158.613 56.087 159.215C56.3969 159.816 56.8253 160.299 57.3722 160.664C57.9191 161.01 58.5571 161.184 59.2863 161.184ZM70.8395 152.762L68.488 152.324L70.9489 145.188L73.8473 145.953L70.8395 152.762ZM79.7678 164.41C79.1845 164.41 78.592 164.337 77.9905 164.191C77.3889 164.064 76.842 163.9 76.3498 163.699C75.8577 163.48 75.4657 163.271 75.1741 163.07V160.145C75.5022 160.363 75.9123 160.591 76.4045 160.828C76.8967 161.047 77.398 161.229 77.9084 161.375C78.4371 161.503 78.9293 161.566 79.385 161.566C80.1142 161.566 80.6702 161.43 81.053 161.156C81.454 160.883 81.6545 160.509 81.6545 160.035C81.6545 159.671 81.4905 159.388 81.1623 159.188C80.8524 158.969 80.3967 158.75 79.7952 158.531L78.0452 157.93C76.9879 157.565 76.2587 157.064 75.8577 156.426C75.4748 155.788 75.2834 155.04 75.2834 154.184C75.2834 153.327 75.5022 152.579 75.9397 151.941C76.3772 151.303 76.9879 150.802 77.7717 150.438C78.5738 150.073 79.4853 149.891 80.5061 149.891C81.3446 149.891 82.1285 150.018 82.8577 150.273C83.5868 150.51 84.1337 150.784 84.4983 151.094V154.02C84.079 153.728 83.5504 153.454 82.9123 153.199C82.2926 152.926 81.6363 152.789 80.9436 152.789C80.2509 152.789 79.704 152.944 79.303 153.254C78.9202 153.564 78.7287 153.919 78.7287 154.32C78.7287 154.63 78.8381 154.922 79.0569 155.195C79.2939 155.451 79.7131 155.669 80.3147 155.852L82.0373 156.453C83.0582 156.763 83.8147 157.219 84.3069 157.82C84.8173 158.422 85.0725 159.16 85.0725 160.035C85.0725 160.855 84.8355 161.603 84.3616 162.277C83.8876 162.934 83.2496 163.453 82.4475 163.836C81.6636 164.219 80.7704 164.41 79.7678 164.41ZM95.6009 164V145.68H103.12C103.959 145.68 104.779 145.835 105.581 146.145C106.402 146.454 107.131 146.901 107.769 147.484C108.425 148.068 108.945 148.779 109.327 149.617C109.729 150.456 109.929 151.404 109.929 152.461C109.929 153.773 109.619 154.922 108.999 155.906C108.38 156.891 107.541 157.656 106.484 158.203C105.445 158.75 104.314 159.023 103.093 159.023C102.109 159.023 101.234 158.932 100.468 158.75C99.7207 158.549 99.1283 158.322 98.6908 158.066V155.113C99.0918 155.314 99.6478 155.505 100.359 155.688C101.07 155.87 101.808 155.961 102.574 155.961C103.74 155.961 104.652 155.651 105.308 155.031C105.982 154.411 106.32 153.555 106.32 152.461C106.32 151.714 106.137 151.085 105.773 150.574C105.426 150.064 104.962 149.672 104.378 149.398C103.795 149.125 103.157 148.988 102.464 148.988H99.1283V164H95.6009ZM118.529 164.328C117.344 164.328 116.287 164.091 115.357 163.617C114.446 163.143 113.717 162.469 113.17 161.594C112.641 160.701 112.377 159.643 112.377 158.422V150.219H115.658V157.93C115.658 159.005 115.932 159.826 116.478 160.391C117.025 160.938 117.709 161.211 118.529 161.211C119.35 161.211 120.024 160.938 120.553 160.391C121.1 159.826 121.373 159.005 121.373 157.93V150.219H124.682V158.422C124.682 159.643 124.408 160.701 123.861 161.594C123.333 162.469 122.603 163.143 121.674 163.617C120.744 164.091 119.696 164.328 118.529 164.328ZM128.141 164V150.219H131.368V164H128.141ZM131.368 156.18V152.844C131.86 152.005 132.434 151.312 133.09 150.766C133.765 150.219 134.512 149.945 135.332 149.945C135.843 149.945 136.29 150.036 136.672 150.219V153.855C136.399 153.691 136.116 153.564 135.825 153.473C135.533 153.382 135.214 153.336 134.868 153.336C134.047 153.336 133.364 153.609 132.817 154.156C132.288 154.703 131.805 155.378 131.368 156.18ZM138.819 170.562V150.219H142.046V152.543C142.465 151.796 143.058 151.167 143.823 150.656C144.607 150.146 145.509 149.891 146.53 149.891C147.661 149.891 148.69 150.173 149.62 150.738C150.568 151.285 151.325 152.087 151.89 153.145C152.473 154.202 152.765 155.487 152.765 157C152.765 158.513 152.473 159.826 151.89 160.938C151.325 162.049 150.55 162.906 149.565 163.508C148.581 164.109 147.487 164.41 146.284 164.41C145.519 164.41 144.753 164.219 143.987 163.836C143.222 163.453 142.575 162.97 142.046 162.387V170.562H138.819ZM145.655 161.266C146.421 161.266 147.077 161.065 147.624 160.664C148.189 160.245 148.627 159.707 148.937 159.051C149.246 158.395 149.401 157.711 149.401 157C149.401 156.253 149.246 155.596 148.937 155.031C148.645 154.448 148.226 153.983 147.679 153.637C147.132 153.29 146.494 153.117 145.765 153.117C145.108 153.117 144.498 153.281 143.933 153.609C143.368 153.938 142.912 154.411 142.565 155.031C142.219 155.651 142.046 156.389 142.046 157.246L142.073 159.352C142.584 159.917 143.131 160.382 143.714 160.746C144.297 161.092 144.944 161.266 145.655 161.266ZM161.966 164.41C160.946 164.41 159.989 164.228 159.095 163.863C158.22 163.48 157.446 162.961 156.771 162.305C156.097 161.648 155.568 160.883 155.185 160.008C154.802 159.115 154.611 158.167 154.611 157.164C154.611 156.143 154.802 155.195 155.185 154.32C155.568 153.445 156.097 152.68 156.771 152.023C157.446 151.349 158.22 150.829 159.095 150.465C159.989 150.082 160.946 149.891 161.966 149.891C162.969 149.891 163.908 150.082 164.783 150.465C165.676 150.829 166.46 151.349 167.134 152.023C167.827 152.68 168.356 153.445 168.72 154.32C169.103 155.195 169.295 156.143 169.295 157.164C169.295 158.167 169.103 159.115 168.72 160.008C168.356 160.883 167.827 161.648 167.134 162.305C166.46 162.961 165.676 163.48 164.783 163.863C163.908 164.228 162.969 164.41 161.966 164.41ZM161.966 161.293C162.696 161.293 163.352 161.129 163.935 160.801C164.537 160.454 165.011 159.971 165.357 159.352C165.703 158.732 165.877 158.003 165.877 157.164C165.877 156.307 165.703 155.569 165.357 154.949C165.011 154.329 164.537 153.855 163.935 153.527C163.352 153.181 162.696 153.008 161.966 153.008C161.255 153.008 160.599 153.181 159.998 153.527C159.396 153.855 158.913 154.329 158.548 154.949C158.202 155.569 158.029 156.307 158.029 157.164C158.029 158.003 158.202 158.732 158.548 159.352C158.913 159.971 159.396 160.454 159.998 160.801C160.599 161.129 161.255 161.293 161.966 161.293ZM175.762 164.41C175.179 164.41 174.586 164.337 173.985 164.191C173.383 164.064 172.836 163.9 172.344 163.699C171.852 163.48 171.46 163.271 171.168 163.07V160.145C171.496 160.363 171.906 160.591 172.399 160.828C172.891 161.047 173.392 161.229 173.902 161.375C174.431 161.503 174.923 161.566 175.379 161.566C176.108 161.566 176.664 161.43 177.047 161.156C177.448 160.883 177.649 160.509 177.649 160.035C177.649 159.671 177.485 159.388 177.156 159.188C176.847 158.969 176.391 158.75 175.789 158.531L174.039 157.93C172.982 157.565 172.253 157.064 171.852 156.426C171.469 155.788 171.277 155.04 171.277 154.184C171.277 153.327 171.496 152.579 171.934 151.941C172.371 151.303 172.982 150.802 173.766 150.438C174.568 150.073 175.479 149.891 176.5 149.891C177.339 149.891 178.123 150.018 178.852 150.273C179.581 150.51 180.128 150.784 180.492 151.094V154.02C180.073 153.728 179.544 153.454 178.906 153.199C178.287 152.926 177.63 152.789 176.938 152.789C176.245 152.789 175.698 152.944 175.297 153.254C174.914 153.564 174.723 153.919 174.723 154.32C174.723 154.63 174.832 154.922 175.051 155.195C175.288 155.451 175.707 155.669 176.309 155.852L178.031 156.453C179.052 156.763 179.809 157.219 180.301 157.82C180.811 158.422 181.067 159.16 181.067 160.035C181.067 160.855 180.83 161.603 180.356 162.277C179.882 162.934 179.244 163.453 178.442 163.836C177.658 164.219 176.764 164.41 175.762 164.41ZM189.94 164.41C188.919 164.41 187.962 164.237 187.069 163.891C186.194 163.526 185.41 163.025 184.717 162.387C184.043 161.73 183.514 160.965 183.132 160.09C182.767 159.215 182.585 158.267 182.585 157.246C182.585 155.915 182.885 154.694 183.487 153.582C184.089 152.47 184.909 151.577 185.948 150.902C186.987 150.228 188.172 149.891 189.503 149.891C190.87 149.891 192.037 150.182 193.003 150.766C193.969 151.349 194.707 152.151 195.217 153.172C195.728 154.193 195.983 155.368 195.983 156.699V158.148H185.565V155.852H192.866C192.811 155.141 192.611 154.557 192.264 154.102C191.936 153.646 191.517 153.309 191.007 153.09C190.514 152.871 189.995 152.762 189.448 152.762C188.701 152.762 188.053 152.953 187.507 153.336C186.96 153.719 186.531 154.247 186.221 154.922C185.93 155.596 185.784 156.371 185.784 157.246C185.784 158.048 185.957 158.768 186.303 159.406C186.668 160.044 187.169 160.546 187.807 160.91C188.464 161.275 189.211 161.457 190.05 161.457C191.07 161.457 191.982 161.247 192.784 160.828C193.604 160.409 194.27 159.971 194.78 159.516V162.578C194.507 162.852 194.124 163.134 193.632 163.426C193.139 163.699 192.574 163.927 191.936 164.109C191.316 164.31 190.651 164.41 189.94 164.41Z" fill="white"/>
<path d="M19.792 193L16.64 181.16H18.256L20.704 190.696L23.28 181.16H24.816L27.392 190.664L29.824 181.16H31.44L28.288 193H26.496L24.048 183.896L21.584 193H19.792ZM33.0381 193V180.84H34.5581V185.752H34.6541C34.7288 185.624 34.8515 185.448 35.0221 185.224C35.2035 185 35.4595 184.803 35.7901 184.632C36.1208 184.451 36.5368 184.36 37.0381 184.36C37.6568 184.36 38.1848 184.504 38.6221 184.792C39.0595 185.069 39.3901 185.448 39.6141 185.928C39.8488 186.408 39.9661 186.947 39.9661 187.544V193H38.4461V187.64C38.4461 187.075 38.2861 186.605 37.9661 186.232C37.6568 185.859 37.2035 185.672 36.6061 185.672C36.1261 185.672 35.7368 185.795 35.4381 186.04C35.1395 186.275 34.9155 186.589 34.7661 186.984C34.6275 187.368 34.5581 187.779 34.5581 188.216V193H33.0381ZM45.5663 184.36C46.0996 184.36 46.5476 184.445 46.9103 184.616C47.2729 184.787 47.5663 184.989 47.7903 185.224C48.0143 185.448 48.1849 185.661 48.3023 185.864H48.3983V184.52H49.9183V193H48.3983V191.656H48.3023C48.1849 191.859 48.0143 192.077 47.7903 192.312C47.5663 192.547 47.2729 192.749 46.9103 192.92C46.5476 193.08 46.0996 193.16 45.5663 193.16C44.9263 193.16 44.3663 193.037 43.8863 192.792C43.4063 192.536 43.0063 192.2 42.6863 191.784C42.3663 191.357 42.1263 190.883 41.9663 190.36C41.8063 189.837 41.7263 189.304 41.7263 188.76C41.7263 188.216 41.8063 187.683 41.9663 187.16C42.1263 186.637 42.3663 186.168 42.6863 185.752C43.0063 185.325 43.4063 184.989 43.8863 184.744C44.3663 184.488 44.9263 184.36 45.5663 184.36ZM45.8223 185.656C45.2569 185.656 44.7823 185.811 44.3983 186.12C44.0143 186.419 43.7263 186.803 43.5343 187.272C43.3529 187.741 43.2623 188.237 43.2623 188.76C43.2623 189.272 43.3529 189.768 43.5343 190.248C43.7263 190.717 44.0143 191.107 44.3983 191.416C44.7823 191.715 45.2569 191.864 45.8223 191.864C46.3876 191.864 46.8569 191.715 47.2303 191.416C47.6143 191.107 47.8969 190.717 48.0783 190.248C48.2703 189.768 48.3663 189.272 48.3663 188.76C48.3663 188.237 48.2703 187.741 48.0783 187.272C47.8969 186.803 47.6143 186.419 47.2303 186.12C46.8569 185.811 46.3876 185.656 45.8223 185.656ZM55.1194 193.16C54.2447 193.16 53.5834 192.936 53.1354 192.488C52.698 192.04 52.4794 191.411 52.4794 190.6V185.768H50.9594V184.52H52.4794V182.392H53.9994V184.52H56.0634V185.768H53.9994V190.6C53.9994 191.027 54.1167 191.341 54.3514 191.544C54.586 191.736 54.9274 191.832 55.3754 191.832C55.61 191.832 55.834 191.816 56.0474 191.784C56.2607 191.752 56.3674 191.736 56.3674 191.736V193.032C56.3674 193.032 56.2447 193.053 55.9994 193.096C55.754 193.139 55.4607 193.16 55.1194 193.16ZM65.2666 193.16C64.5733 193.16 63.9706 193.037 63.4586 192.792C62.9573 192.536 62.5413 192.195 62.2106 191.768C61.8906 191.341 61.6506 190.872 61.4906 190.36C61.3306 189.837 61.2506 189.304 61.2506 188.76C61.2506 188.227 61.3253 187.699 61.4746 187.176C61.6346 186.653 61.8746 186.179 62.1946 185.752C62.5253 185.325 62.936 184.989 63.4266 184.744C63.928 184.488 64.52 184.36 65.2026 184.36C65.928 184.36 66.568 184.525 67.1226 184.856C67.6773 185.187 68.1146 185.677 68.4346 186.328C68.7546 186.979 68.9146 187.795 68.9146 188.776V189.224H62.7866C62.8186 189.704 62.9306 190.147 63.1226 190.552C63.3253 190.947 63.608 191.267 63.9706 191.512C64.3333 191.747 64.7653 191.864 65.2666 191.864C65.704 191.864 66.056 191.795 66.3226 191.656C66.6 191.507 66.8186 191.336 66.9786 191.144C67.1386 190.952 67.2453 190.787 67.2986 190.648C67.3626 190.499 67.3946 190.424 67.3946 190.424H68.8186C68.8186 190.424 68.792 190.52 68.7386 190.712C68.6853 190.893 68.5893 191.117 68.4506 191.384C68.312 191.651 68.1093 191.923 67.8426 192.2C67.576 192.467 67.2346 192.696 66.8186 192.888C66.4026 193.069 65.8853 193.16 65.2666 193.16ZM62.8026 188.04H67.4266C67.4053 187.485 67.288 187.037 67.0746 186.696C66.8613 186.344 66.5893 186.083 66.2586 185.912C65.928 185.741 65.576 185.656 65.2026 185.656C64.5306 185.656 63.9813 185.875 63.5546 186.312C63.128 186.739 62.8773 187.315 62.8026 188.04ZM69.7204 193L72.4884 188.776L69.7044 184.52H71.3524L73.5284 187.88L75.7204 184.52H77.3684L74.5364 188.776L77.3524 193H75.7044L73.5284 189.656L71.3684 193H69.7204ZM81.9975 184.36C82.5308 184.36 82.9788 184.445 83.3415 184.616C83.7042 184.787 83.9975 184.989 84.2215 185.224C84.4455 185.448 84.6162 185.661 84.7335 185.864H84.8295V184.52H86.3495V193H84.8295V191.656H84.7335C84.6162 191.859 84.4455 192.077 84.2215 192.312C83.9975 192.547 83.7042 192.749 83.3415 192.92C82.9788 193.08 82.5308 193.16 81.9975 193.16C81.3575 193.16 80.7975 193.037 80.3175 192.792C79.8375 192.536 79.4375 192.2 79.1175 191.784C78.7975 191.357 78.5575 190.883 78.3975 190.36C78.2375 189.837 78.1575 189.304 78.1575 188.76C78.1575 188.216 78.2375 187.683 78.3975 187.16C78.5575 186.637 78.7975 186.168 79.1175 185.752C79.4375 185.325 79.8375 184.989 80.3175 184.744C80.7975 184.488 81.3575 184.36 81.9975 184.36ZM82.2535 185.656C81.6882 185.656 81.2135 185.811 80.8295 186.12C80.4455 186.419 80.1575 186.803 79.9655 187.272C79.7842 187.741 79.6935 188.237 79.6935 188.76C79.6935 189.272 79.7842 189.768 79.9655 190.248C80.1575 190.717 80.4455 191.107 80.8295 191.416C81.2135 191.715 81.6882 191.864 82.2535 191.864C82.8188 191.864 83.2882 191.715 83.6615 191.416C84.0455 191.107 84.3282 190.717 84.5095 190.248C84.7015 189.768 84.7975 189.272 84.7975 188.76C84.7975 188.237 84.7015 187.741 84.5095 187.272C84.3282 186.803 84.0455 186.419 83.6615 186.12C83.2882 185.811 82.8188 185.656 82.2535 185.656ZM92.2791 193.16C91.5858 193.16 90.9778 193.037 90.4551 192.792C89.9325 192.536 89.4951 192.2 89.1431 191.784C88.8018 191.357 88.5405 190.883 88.3591 190.36C88.1885 189.837 88.1031 189.304 88.1031 188.76C88.1031 188.216 88.1885 187.688 88.3591 187.176C88.5298 186.653 88.7858 186.179 89.1271 185.752C89.4791 185.325 89.9165 184.989 90.4391 184.744C90.9618 184.488 91.5751 184.36 92.2791 184.36C92.9618 184.36 93.5271 184.461 93.9751 184.664C94.4231 184.867 94.7805 185.123 95.0471 185.432C95.3245 185.731 95.5271 186.035 95.6551 186.344C95.7938 186.643 95.8845 186.893 95.9271 187.096C95.9698 187.299 95.9911 187.4 95.9911 187.4H94.5191C94.5191 187.4 94.4925 187.315 94.4391 187.144C94.3858 186.963 94.2845 186.76 94.1351 186.536C93.9858 186.312 93.7618 186.115 93.4631 185.944C93.1645 185.763 92.7698 185.672 92.2791 185.672C91.6925 185.672 91.1965 185.821 90.7911 186.12C90.3965 186.408 90.0978 186.787 89.8951 187.256C89.7031 187.725 89.6071 188.227 89.6071 188.76C89.6071 189.293 89.7031 189.795 89.8951 190.264C90.0978 190.733 90.3965 191.117 90.7911 191.416C91.1965 191.704 91.6925 191.848 92.2791 191.848C92.7698 191.848 93.1645 191.763 93.4631 191.592C93.7618 191.411 93.9858 191.208 94.1351 190.984C94.2845 190.76 94.3858 190.563 94.4391 190.392C94.4925 190.211 94.5191 190.12 94.5191 190.12H95.9911C95.9911 190.12 95.9698 190.221 95.9271 190.424C95.8845 190.627 95.7938 190.883 95.6551 191.192C95.5271 191.491 95.3245 191.795 95.0471 192.104C94.7805 192.403 94.4231 192.653 93.9751 192.856C93.5271 193.059 92.9618 193.16 92.2791 193.16ZM101.356 193.16C100.481 193.16 99.8196 192.936 99.3716 192.488C98.9343 192.04 98.7156 191.411 98.7156 190.6V185.768H97.1956V184.52H98.7156V182.392H100.236V184.52H102.3V185.768H100.236V190.6C100.236 191.027 100.353 191.341 100.588 191.544C100.822 191.736 101.164 191.832 101.612 191.832C101.846 191.832 102.07 191.816 102.284 191.784C102.497 191.752 102.604 191.736 102.604 191.736V193.032C102.604 193.032 102.481 193.053 102.236 193.096C101.99 193.139 101.697 193.16 101.356 193.16ZM104.439 193L104.455 180.84H105.959V193H104.439ZM108.358 196.12C108.112 196.12 107.904 196.109 107.734 196.088C107.563 196.067 107.478 196.056 107.478 196.056V194.76C107.478 194.76 107.563 194.765 107.734 194.776C107.915 194.797 108.107 194.808 108.31 194.808C108.939 194.808 109.451 194.675 109.846 194.408C110.251 194.152 110.592 193.725 110.87 193.128L107.59 184.52H109.174L111.622 191.144L114.086 184.52H115.686L112.406 193.016C111.99 194.083 111.451 194.867 110.79 195.368C110.139 195.869 109.328 196.12 108.358 196.12ZM124.093 184.36C124.626 184.36 125.074 184.445 125.437 184.616C125.8 184.787 126.093 184.989 126.317 185.224C126.541 185.448 126.712 185.661 126.829 185.864H126.925V184.52H128.445V193H126.925V191.656H126.829C126.712 191.859 126.541 192.077 126.317 192.312C126.093 192.547 125.8 192.749 125.437 192.92C125.074 193.08 124.626 193.16 124.093 193.16C123.453 193.16 122.893 193.037 122.413 192.792C121.933 192.536 121.533 192.2 121.213 191.784C120.893 191.357 120.653 190.883 120.493 190.36C120.333 189.837 120.253 189.304 120.253 188.76C120.253 188.216 120.333 187.683 120.493 187.16C120.653 186.637 120.893 186.168 121.213 185.752C121.533 185.325 121.933 184.989 122.413 184.744C122.893 184.488 123.453 184.36 124.093 184.36ZM124.349 185.656C123.784 185.656 123.309 185.811 122.925 186.12C122.541 186.419 122.253 186.803 122.061 187.272C121.88 187.741 121.789 188.237 121.789 188.76C121.789 189.272 121.88 189.768 122.061 190.248C122.253 190.717 122.541 191.107 122.925 191.416C123.309 191.715 123.784 191.864 124.349 191.864C124.914 191.864 125.384 191.715 125.757 191.416C126.141 191.107 126.424 190.717 126.605 190.248C126.797 189.768 126.893 189.272 126.893 188.76C126.893 188.237 126.797 187.741 126.605 187.272C126.424 186.803 126.141 186.419 125.757 186.12C125.384 185.811 124.914 185.656 124.349 185.656ZM130.359 193V184.52H131.879V185.576H131.943C132.124 185.256 132.391 184.973 132.743 184.728C133.095 184.483 133.591 184.36 134.231 184.36C134.412 184.36 134.577 184.371 134.727 184.392C134.876 184.403 134.951 184.408 134.951 184.408V185.864C134.951 185.864 134.865 185.859 134.695 185.848C134.535 185.827 134.364 185.816 134.183 185.816C133.447 185.816 132.876 186.029 132.471 186.456C132.076 186.872 131.879 187.555 131.879 188.504V193H130.359ZM139.52 193.16C138.826 193.16 138.224 193.037 137.712 192.792C137.21 192.536 136.794 192.195 136.464 191.768C136.144 191.341 135.904 190.872 135.744 190.36C135.584 189.837 135.504 189.304 135.504 188.76C135.504 188.227 135.578 187.699 135.728 187.176C135.888 186.653 136.128 186.179 136.448 185.752C136.778 185.325 137.189 184.989 137.68 184.744C138.181 184.488 138.773 184.36 139.456 184.36C140.181 184.36 140.821 184.525 141.376 184.856C141.93 185.187 142.368 185.677 142.688 186.328C143.008 186.979 143.168 187.795 143.168 188.776V189.224H137.04C137.072 189.704 137.184 190.147 137.376 190.552C137.578 190.947 137.861 191.267 138.224 191.512C138.586 191.747 139.018 191.864 139.52 191.864C139.957 191.864 140.309 191.795 140.576 191.656C140.853 191.507 141.072 191.336 141.232 191.144C141.392 190.952 141.498 190.787 141.552 190.648C141.616 190.499 141.648 190.424 141.648 190.424H143.072C143.072 190.424 143.045 190.52 142.992 190.712C142.938 190.893 142.842 191.117 142.704 191.384C142.565 191.651 142.362 191.923 142.096 192.2C141.829 192.467 141.488 192.696 141.072 192.888C140.656 193.069 140.138 193.16 139.52 193.16ZM137.056 188.04H141.68C141.658 187.485 141.541 187.037 141.328 186.696C141.114 186.344 140.842 186.083 140.512 185.912C140.181 185.741 139.829 185.656 139.456 185.656C138.784 185.656 138.234 185.875 137.808 186.312C137.381 186.739 137.13 187.315 137.056 188.04ZM148.609 196.12C148.364 196.12 148.156 196.109 147.985 196.088C147.815 196.067 147.729 196.056 147.729 196.056V194.76C147.729 194.76 147.815 194.765 147.985 194.776C148.167 194.797 148.359 194.808 148.561 194.808C149.191 194.808 149.703 194.675 150.097 194.408C150.503 194.152 150.844 193.725 151.121 193.128L147.841 184.52H149.425L151.873 191.144L154.337 184.52H155.937L152.657 193.016C152.241 194.083 151.703 194.867 151.041 195.368C150.391 195.869 149.58 196.12 148.609 196.12ZM160.751 193.16C159.844 193.16 159.082 192.952 158.463 192.536C157.844 192.109 157.375 191.56 157.055 190.888C156.735 190.216 156.575 189.507 156.575 188.76C156.575 188.003 156.735 187.293 157.055 186.632C157.375 185.96 157.844 185.416 158.463 185C159.082 184.573 159.844 184.36 160.751 184.36C161.658 184.36 162.42 184.573 163.039 185C163.658 185.416 164.127 185.96 164.447 186.632C164.767 187.293 164.927 188.003 164.927 188.76C164.927 189.507 164.767 190.216 164.447 190.888C164.127 191.56 163.658 192.109 163.039 192.536C162.42 192.952 161.658 193.16 160.751 193.16ZM160.751 191.832C161.327 191.832 161.807 191.688 162.191 191.4C162.586 191.101 162.879 190.717 163.071 190.248C163.274 189.779 163.375 189.283 163.375 188.76C163.375 188.227 163.274 187.731 163.071 187.272C162.879 186.803 162.586 186.424 162.191 186.136C161.807 185.837 161.327 185.688 160.751 185.688C160.186 185.688 159.706 185.837 159.311 186.136C158.916 186.424 158.618 186.803 158.415 187.272C158.223 187.731 158.127 188.227 158.127 188.76C158.127 189.283 158.223 189.779 158.415 190.248C158.618 190.717 158.916 191.101 159.311 191.4C159.706 191.688 160.186 191.832 160.751 191.832ZM169.449 193.16C168.606 193.16 167.934 192.899 167.433 192.376C166.931 191.853 166.681 191.128 166.681 190.2V184.52H168.201V190.12C168.201 190.675 168.35 191.101 168.649 191.4C168.958 191.699 169.363 191.848 169.865 191.848C170.377 191.848 170.787 191.715 171.097 191.448C171.406 191.181 171.63 190.84 171.769 190.424C171.907 190.008 171.977 189.581 171.977 189.144V184.52H173.497V193H171.977V191.784H171.881C171.817 191.912 171.694 192.088 171.513 192.312C171.331 192.525 171.075 192.723 170.745 192.904C170.414 193.075 169.982 193.16 169.449 193.16ZM182.807 193.16C181.9 193.16 181.137 192.952 180.519 192.536C179.9 192.109 179.431 191.56 179.111 190.888C178.791 190.216 178.631 189.507 178.631 188.76C178.631 188.003 178.791 187.293 179.111 186.632C179.431 185.96 179.9 185.416 180.519 185C181.137 184.573 181.9 184.36 182.807 184.36C183.713 184.36 184.476 184.573 185.095 185C185.713 185.416 186.183 185.96 186.503 186.632C186.823 187.293 186.983 188.003 186.983 188.76C186.983 189.507 186.823 190.216 186.503 190.888C186.183 191.56 185.713 192.109 185.095 192.536C184.476 192.952 183.713 193.16 182.807 193.16ZM182.807 191.832C183.383 191.832 183.863 191.688 184.247 191.4C184.641 191.101 184.935 190.717 185.127 190.248C185.329 189.779 185.431 189.283 185.431 188.76C185.431 188.227 185.329 187.731 185.127 187.272C184.935 186.803 184.641 186.424 184.247 186.136C183.863 185.837 183.383 185.688 182.807 185.688C182.241 185.688 181.761 185.837 181.367 186.136C180.972 186.424 180.673 186.803 180.471 187.272C180.279 187.731 180.183 188.227 180.183 188.76C180.183 189.283 180.279 189.779 180.471 190.248C180.673 190.717 180.972 191.101 181.367 191.4C181.761 191.688 182.241 191.832 182.807 191.832ZM188.736 193V184.52H190.256V185.752H190.352C190.427 185.624 190.55 185.448 190.72 185.224C190.902 185 191.158 184.803 191.488 184.632C191.819 184.451 192.235 184.36 192.736 184.36C193.355 184.36 193.883 184.504 194.32 184.792C194.758 185.069 195.088 185.448 195.312 185.928C195.547 186.408 195.664 186.947 195.664 187.544V193H194.144V187.64C194.144 187.075 193.984 186.605 193.664 186.232C193.355 185.859 192.902 185.672 192.304 185.672C191.824 185.672 191.435 185.795 191.136 186.04C190.838 186.275 190.614 186.589 190.464 186.984C190.326 187.368 190.256 187.779 190.256 188.216V193H188.736ZM20.976 212.16C20.2827 212.16 19.68 212.037 19.168 211.792C18.6667 211.536 18.2507 211.195 17.92 210.768C17.6 210.341 17.36 209.872 17.2 209.36C17.04 208.837 16.96 208.304 16.96 207.76C16.96 207.227 17.0347 206.699 17.184 206.176C17.344 205.653 17.584 205.179 17.904 204.752C18.2347 204.325 18.6453 203.989 19.136 203.744C19.6373 203.488 20.2293 203.36 20.912 203.36C21.6373 203.36 22.2773 203.525 22.832 203.856C23.3867 204.187 23.824 204.677 24.144 205.328C24.464 205.979 24.624 206.795 24.624 207.776V208.224H18.496C18.528 208.704 18.64 209.147 18.832 209.552C19.0347 209.947 19.3173 210.267 19.68 210.512C20.0427 210.747 20.4747 210.864 20.976 210.864C21.4133 210.864 21.7653 210.795 22.032 210.656C22.3093 210.507 22.528 210.336 22.688 210.144C22.848 209.952 22.9547 209.787 23.008 209.648C23.072 209.499 23.104 209.424 23.104 209.424H24.528C24.528 209.424 24.5013 209.52 24.448 209.712C24.3947 209.893 24.2987 210.117 24.16 210.384C24.0213 210.651 23.8187 210.923 23.552 211.2C23.2853 211.467 22.944 211.696 22.528 211.888C22.112 212.069 21.5947 212.16 20.976 212.16ZM18.512 207.04H23.136C23.1147 206.485 22.9973 206.037 22.784 205.696C22.5707 205.344 22.2987 205.083 21.968 204.912C21.6373 204.741 21.2853 204.656 20.912 204.656C20.24 204.656 19.6907 204.875 19.264 205.312C18.8373 205.739 18.5867 206.315 18.512 207.04ZM29.98 203.36C30.5133 203.36 30.9613 203.445 31.324 203.616C31.6867 203.787 31.98 203.989 32.204 204.224C32.428 204.448 32.5987 204.661 32.716 204.864H32.812V203.52H34.332V212H32.812V210.656H32.716C32.5987 210.859 32.428 211.077 32.204 211.312C31.98 211.547 31.6867 211.749 31.324 211.92C30.9613 212.08 30.5133 212.16 29.98 212.16C29.34 212.16 28.78 212.037 28.3 211.792C27.82 211.536 27.42 211.2 27.1 210.784C26.78 210.357 26.54 209.883 26.38 209.36C26.22 208.837 26.14 208.304 26.14 207.76C26.14 207.216 26.22 206.683 26.38 206.16C26.54 205.637 26.78 205.168 27.1 204.752C27.42 204.325 27.82 203.989 28.3 203.744C28.78 203.488 29.34 203.36 29.98 203.36ZM30.236 204.656C29.6707 204.656 29.196 204.811 28.812 205.12C28.428 205.419 28.14 205.803 27.948 206.272C27.7667 206.741 27.676 207.237 27.676 207.76C27.676 208.272 27.7667 208.768 27.948 209.248C28.14 209.717 28.428 210.107 28.812 210.416C29.196 210.715 29.6707 210.864 30.236 210.864C30.8013 210.864 31.2707 210.715 31.644 210.416C32.028 210.107 32.3107 209.717 32.492 209.248C32.684 208.768 32.78 208.272 32.78 207.76C32.78 207.237 32.684 206.741 32.492 206.272C32.3107 205.803 32.028 205.419 31.644 205.12C31.2707 204.811 30.8013 204.656 30.236 204.656ZM36.2456 212V203.52H37.7656V204.576H37.8296C38.011 204.256 38.2776 203.973 38.6296 203.728C38.9816 203.483 39.4776 203.36 40.1176 203.36C40.299 203.36 40.4643 203.371 40.6136 203.392C40.763 203.403 40.8376 203.408 40.8376 203.408V204.864C40.8376 204.864 40.7523 204.859 40.5816 204.848C40.4216 204.827 40.251 204.816 40.0696 204.816C39.3336 204.816 38.763 205.029 38.3576 205.456C37.963 205.872 37.7656 206.555 37.7656 207.504V212H36.2456ZM45.7913 212.16C44.9166 212.16 44.2553 211.936 43.8073 211.488C43.3699 211.04 43.1513 210.411 43.1513 209.6V204.768H41.6313V203.52H43.1513V201.392H44.6713V203.52H46.7353V204.768H44.6713V209.6C44.6713 210.027 44.7886 210.341 45.0233 210.544C45.2579 210.736 45.5993 210.832 46.0473 210.832C46.2819 210.832 46.5059 210.816 46.7193 210.784C46.9326 210.752 47.0393 210.736 47.0393 210.736V212.032C47.0393 212.032 46.9166 212.053 46.6713 212.096C46.4259 212.139 46.1326 212.16 45.7913 212.16ZM48.875 212V199.84H50.395V204.752H50.491C50.5657 204.624 50.6883 204.448 50.859 204.224C51.0403 204 51.2963 203.803 51.627 203.632C51.9577 203.451 52.3737 203.36 52.875 203.36C53.4937 203.36 54.0217 203.504 54.459 203.792C54.8963 204.069 55.227 204.448 55.451 204.928C55.6857 205.408 55.803 205.947 55.803 206.544V212H54.283V206.64C54.283 206.075 54.123 205.605 53.803 205.232C53.4937 204.859 53.0403 204.672 52.443 204.672C51.963 204.672 51.5737 204.795 51.275 205.04C50.9763 205.275 50.7523 205.589 50.603 205.984C50.4643 206.368 50.395 206.779 50.395 207.216V212H48.875ZM62.0826 212V204.768H60.6906V203.52H62.0826V202.48C62.0826 202.032 62.1626 201.595 62.3226 201.168C62.4826 200.731 62.7493 200.373 63.1226 200.096C63.496 199.819 64.0026 199.68 64.6426 199.68C64.952 199.68 65.1973 199.707 65.3786 199.76C65.5706 199.803 65.6666 199.824 65.6666 199.824V201.024C65.6666 201.024 65.5813 201.008 65.4106 200.976C65.2506 200.933 65.064 200.912 64.8506 200.912C64.36 200.912 64.0293 201.061 63.8586 201.36C63.688 201.659 63.6026 202.032 63.6026 202.48V203.52H65.5706V204.768H63.6026V212H62.0826ZM70.4741 212.16C69.5675 212.16 68.8048 211.952 68.1861 211.536C67.5675 211.109 67.0981 210.56 66.7781 209.888C66.4581 209.216 66.2981 208.507 66.2981 207.76C66.2981 207.003 66.4581 206.293 66.7781 205.632C67.0981 204.96 67.5675 204.416 68.1861 204C68.8048 203.573 69.5675 203.36 70.4741 203.36C71.3808 203.36 72.1435 203.573 72.7621 204C73.3808 204.416 73.8501 204.96 74.1701 205.632C74.4901 206.293 74.6501 207.003 74.6501 207.76C74.6501 208.507 74.4901 209.216 74.1701 209.888C73.8501 210.56 73.3808 211.109 72.7621 211.536C72.1435 211.952 71.3808 212.16 70.4741 212.16ZM70.4741 210.832C71.0501 210.832 71.5301 210.688 71.9141 210.4C72.3088 210.101 72.6021 209.717 72.7941 209.248C72.9968 208.779 73.0981 208.283 73.0981 207.76C73.0981 207.227 72.9968 206.731 72.7941 206.272C72.6021 205.803 72.3088 205.424 71.9141 205.136C71.5301 204.837 71.0501 204.688 70.4741 204.688C69.9088 204.688 69.4288 204.837 69.0341 205.136C68.6395 205.424 68.3408 205.803 68.1381 206.272C67.9461 206.731 67.8501 207.227 67.8501 207.76C67.8501 208.283 67.9461 208.779 68.1381 209.248C68.3408 209.717 68.6395 210.101 69.0341 210.4C69.4288 210.688 69.9088 210.832 70.4741 210.832ZM76.4037 212V203.52H77.9237V204.576H77.9877C78.1691 204.256 78.4357 203.973 78.7877 203.728C79.1397 203.483 79.6357 203.36 80.2757 203.36C80.4571 203.36 80.6224 203.371 80.7717 203.392C80.9211 203.403 80.9957 203.408 80.9957 203.408V204.864C80.9957 204.864 80.9104 204.859 80.7397 204.848C80.5797 204.827 80.4091 204.816 80.2277 204.816C79.4917 204.816 78.9211 205.029 78.5157 205.456C78.1211 205.872 77.9237 206.555 77.9237 207.504V212H76.4037ZM84.8774 208.976V208.416C84.8774 207.893 84.984 207.456 85.1974 207.104C85.4107 206.741 85.672 206.421 85.9814 206.144C86.3014 205.867 86.616 205.6 86.9254 205.344C87.2454 205.077 87.512 204.795 87.7254 204.496C87.9387 204.187 88.0454 203.819 88.0454 203.392C88.0454 202.965 87.9387 202.603 87.7254 202.304C87.512 202.005 87.2347 201.781 86.8934 201.632C86.5627 201.472 86.2 201.392 85.8054 201.392C85.4214 201.392 85.0534 201.477 84.7014 201.648C84.36 201.808 84.0774 202.064 83.8534 202.416C83.64 202.768 83.5334 203.216 83.5334 203.76H82.0294C82.0294 202.907 82.216 202.203 82.5894 201.648C82.9627 201.093 83.4374 200.683 84.0134 200.416C84.6 200.139 85.2134 200 85.8534 200C86.5147 200 87.128 200.133 87.6934 200.4C88.2694 200.667 88.728 201.051 89.0694 201.552C89.4214 202.053 89.5974 202.656 89.5974 203.36C89.5974 203.915 89.4907 204.395 89.2774 204.8C89.064 205.195 88.7974 205.541 88.4774 205.84C88.1574 206.139 87.8374 206.416 87.5174 206.672C87.1974 206.928 86.9307 207.195 86.7174 207.472C86.504 207.749 86.3974 208.064 86.3974 208.416V208.976H84.8774ZM85.6614 212.16C85.3734 212.16 85.1334 212.064 84.9414 211.872C84.76 211.669 84.6694 211.435 84.6694 211.168C84.6694 210.891 84.76 210.656 84.9414 210.464C85.1334 210.272 85.3734 210.176 85.6614 210.176C85.9387 210.176 86.1734 210.272 86.3654 210.464C86.5574 210.656 86.6534 210.891 86.6534 211.168C86.6534 211.435 86.5574 211.669 86.3654 211.872C86.1734 212.064 85.9387 212.16 85.6614 212.16ZM94.7288 212V200.16H102.537V201.536H96.2968V205.44H101.801V206.816H96.2968V212H94.7288ZM105.366 201.904C105.078 201.904 104.838 201.808 104.646 201.616C104.464 201.424 104.374 201.195 104.374 200.928C104.374 200.651 104.464 200.416 104.646 200.224C104.838 200.032 105.078 199.936 105.366 199.936C105.643 199.936 105.878 200.032 106.07 200.224C106.262 200.416 106.358 200.651 106.358 200.928C106.358 201.195 106.262 201.424 106.07 201.616C105.878 201.808 105.643 201.904 105.366 201.904ZM104.614 212V203.52H106.134V212H104.614ZM108.272 212V203.52H109.792V204.752H109.888C109.963 204.624 110.086 204.448 110.256 204.224C110.438 204 110.694 203.803 111.024 203.632C111.355 203.451 111.771 203.36 112.272 203.36C112.891 203.36 113.419 203.504 113.856 203.792C114.294 204.069 114.624 204.448 114.848 204.928C115.083 205.408 115.2 205.947 115.2 206.544V212H113.68V206.64C113.68 206.075 113.52 205.605 113.2 205.232C112.891 204.859 112.438 204.672 111.84 204.672C111.36 204.672 110.971 204.795 110.672 205.04C110.374 205.275 110.15 205.589 110 205.984C109.862 206.368 109.792 206.779 109.792 207.216V212H108.272ZM120.804 212.16C120.164 212.16 119.604 212.037 119.124 211.792C118.644 211.536 118.244 211.2 117.924 210.784C117.604 210.357 117.364 209.883 117.204 209.36C117.044 208.837 116.964 208.304 116.964 207.76C116.964 207.216 117.044 206.683 117.204 206.16C117.364 205.637 117.604 205.168 117.924 204.752C118.244 204.325 118.644 203.989 119.124 203.744C119.604 203.488 120.164 203.36 120.804 203.36C121.338 203.36 121.786 203.445 122.148 203.616C122.511 203.787 122.804 203.989 123.028 204.224C123.252 204.448 123.423 204.661 123.54 204.864H123.636V199.84H125.156V212H123.636V210.656H123.54C123.423 210.859 123.252 211.077 123.028 211.312C122.804 211.547 122.511 211.749 122.148 211.92C121.786 212.08 121.338 212.16 120.804 212.16ZM121.06 210.864C121.626 210.864 122.095 210.715 122.468 210.416C122.852 210.107 123.135 209.717 123.316 209.248C123.508 208.768 123.604 208.272 123.604 207.76C123.604 207.237 123.508 206.741 123.316 206.272C123.135 205.803 122.852 205.419 122.468 205.12C122.095 204.811 121.626 204.656 121.06 204.656C120.495 204.656 120.02 204.811 119.636 205.12C119.252 205.419 118.964 205.803 118.772 206.272C118.591 206.741 118.5 207.237 118.5 207.76C118.5 208.272 118.591 208.768 118.772 209.248C118.964 209.717 119.252 210.107 119.636 210.416C120.02 210.715 120.495 210.864 121.06 210.864ZM134.289 203.36C134.823 203.36 135.271 203.445 135.633 203.616C135.996 203.787 136.289 203.989 136.513 204.224C136.737 204.448 136.908 204.661 137.025 204.864H137.121V203.52H138.641V212H137.121V210.656H137.025C136.908 210.859 136.737 211.077 136.513 211.312C136.289 211.547 135.996 211.749 135.633 211.92C135.271 212.08 134.823 212.16 134.289 212.16C133.649 212.16 133.089 212.037 132.609 211.792C132.129 211.536 131.729 211.2 131.409 210.784C131.089 210.357 130.849 209.883 130.689 209.36C130.529 208.837 130.449 208.304 130.449 207.76C130.449 207.216 130.529 206.683 130.689 206.16C130.849 205.637 131.089 205.168 131.409 204.752C131.729 204.325 132.129 203.989 132.609 203.744C133.089 203.488 133.649 203.36 134.289 203.36ZM134.545 204.656C133.98 204.656 133.505 204.811 133.121 205.12C132.737 205.419 132.449 205.803 132.257 206.272C132.076 206.741 131.985 207.237 131.985 207.76C131.985 208.272 132.076 208.768 132.257 209.248C132.449 209.717 132.737 210.107 133.121 210.416C133.505 210.715 133.98 210.864 134.545 210.864C135.111 210.864 135.58 210.715 135.953 210.416C136.337 210.107 136.62 209.717 136.801 209.248C136.993 208.768 137.089 208.272 137.089 207.76C137.089 207.237 136.993 206.741 136.801 206.272C136.62 205.803 136.337 205.419 135.953 205.12C135.58 204.811 135.111 204.656 134.545 204.656ZM140.555 212V203.52H142.075V204.752H142.171C142.246 204.624 142.368 204.448 142.539 204.224C142.72 204 142.976 203.803 143.307 203.632C143.638 203.451 144.054 203.36 144.555 203.36C145.174 203.36 145.702 203.504 146.139 203.792C146.576 204.069 146.907 204.448 147.131 204.928C147.366 205.408 147.483 205.947 147.483 206.544V212H145.963V206.64C145.963 206.075 145.803 205.605 145.483 205.232C145.174 204.859 144.72 204.672 144.123 204.672C143.643 204.672 143.254 204.795 142.955 205.04C142.656 205.275 142.432 205.589 142.283 205.984C142.144 206.368 142.075 206.779 142.075 207.216V212H140.555ZM152.511 212.16C151.86 212.16 151.322 212.069 150.895 211.888C150.479 211.707 150.148 211.483 149.903 211.216C149.658 210.939 149.476 210.667 149.359 210.4C149.242 210.123 149.167 209.893 149.135 209.712C149.103 209.531 149.087 209.44 149.087 209.44H150.623C150.623 209.44 150.639 209.515 150.671 209.664C150.714 209.803 150.794 209.968 150.911 210.16C151.039 210.341 151.231 210.507 151.487 210.656C151.754 210.795 152.106 210.864 152.543 210.864C153.044 210.864 153.434 210.747 153.711 210.512C153.988 210.267 154.127 209.968 154.127 209.616C154.127 209.307 154.015 209.061 153.791 208.88C153.578 208.699 153.268 208.56 152.863 208.464L151.711 208.192C151.284 208.085 150.884 207.941 150.511 207.76C150.138 207.579 149.834 207.333 149.599 207.024C149.375 206.704 149.263 206.309 149.263 205.84C149.263 205.115 149.535 204.523 150.079 204.064C150.623 203.595 151.332 203.36 152.207 203.36C152.794 203.36 153.279 203.445 153.663 203.616C154.047 203.776 154.351 203.979 154.575 204.224C154.81 204.469 154.98 204.715 155.087 204.96C155.204 205.205 155.279 205.413 155.311 205.584C155.343 205.744 155.359 205.824 155.359 205.824H153.887C153.887 205.824 153.871 205.765 153.839 205.648C153.807 205.52 153.732 205.381 153.615 205.232C153.508 205.072 153.343 204.933 153.119 204.816C152.895 204.688 152.596 204.624 152.223 204.624C151.711 204.624 151.338 204.741 151.103 204.976C150.868 205.211 150.751 205.467 150.751 205.744C150.751 206.011 150.858 206.229 151.071 206.4C151.295 206.56 151.583 206.683 151.935 206.768L153.103 207.04C153.828 207.211 154.426 207.493 154.895 207.888C155.375 208.272 155.615 208.827 155.615 209.552C155.615 210.021 155.492 210.459 155.247 210.864C155.002 211.259 154.65 211.573 154.191 211.808C153.732 212.043 153.172 212.16 152.511 212.16ZM159.075 212L156.339 203.52H157.891L159.907 209.952L162.019 203.52H163.459L165.555 209.952L167.587 203.52H169.139L166.387 212H164.755L162.739 205.744L160.723 212H159.075ZM174.045 212.16C173.351 212.16 172.749 212.037 172.237 211.792C171.735 211.536 171.319 211.195 170.989 210.768C170.669 210.341 170.429 209.872 170.269 209.36C170.109 208.837 170.029 208.304 170.029 207.76C170.029 207.227 170.103 206.699 170.253 206.176C170.413 205.653 170.653 205.179 170.973 204.752C171.303 204.325 171.714 203.989 172.205 203.744C172.706 203.488 173.298 203.36 173.981 203.36C174.706 203.36 175.346 203.525 175.901 203.856C176.455 204.187 176.893 204.677 177.213 205.328C177.533 205.979 177.693 206.795 177.693 207.776V208.224H171.565C171.597 208.704 171.709 209.147 171.901 209.552C172.103 209.947 172.386 210.267 172.749 210.512C173.111 210.747 173.543 210.864 174.045 210.864C174.482 210.864 174.834 210.795 175.101 210.656C175.378 210.507 175.597 210.336 175.757 210.144C175.917 209.952 176.023 209.787 176.077 209.648C176.141 209.499 176.173 209.424 176.173 209.424H177.597C177.597 209.424 177.57 209.52 177.517 209.712C177.463 209.893 177.367 210.117 177.229 210.384C177.09 210.651 176.887 210.923 176.621 211.2C176.354 211.467 176.013 211.696 175.597 211.888C175.181 212.069 174.663 212.16 174.045 212.16ZM171.581 207.04H176.205C176.183 206.485 176.066 206.037 175.853 205.696C175.639 205.344 175.367 205.083 175.037 204.912C174.706 204.741 174.354 204.656 173.981 204.656C173.309 204.656 172.759 204.875 172.333 205.312C171.906 205.739 171.655 206.315 171.581 207.04ZM179.447 212V203.52H180.967V204.576H181.031C181.212 204.256 181.479 203.973 181.831 203.728C182.183 203.483 182.679 203.36 183.319 203.36C183.5 203.36 183.666 203.371 183.815 203.392C183.964 203.403 184.039 203.408 184.039 203.408V204.864C184.039 204.864 183.954 204.859 183.783 204.848C183.623 204.827 183.452 204.816 183.271 204.816C182.535 204.816 181.964 205.029 181.559 205.456C181.164 205.872 180.967 206.555 180.967 207.504V212H179.447ZM188.497 212.16C187.846 212.16 187.307 212.069 186.881 211.888C186.465 211.707 186.134 211.483 185.889 211.216C185.643 210.939 185.462 210.667 185.345 210.4C185.227 210.123 185.153 209.893 185.121 209.712C185.089 209.531 185.073 209.44 185.073 209.44H186.609C186.609 209.44 186.625 209.515 186.657 209.664C186.699 209.803 186.779 209.968 186.897 210.16C187.025 210.341 187.217 210.507 187.473 210.656C187.739 210.795 188.091 210.864 188.529 210.864C189.03 210.864 189.419 210.747 189.697 210.512C189.974 210.267 190.113 209.968 190.113 209.616C190.113 209.307 190.001 209.061 189.777 208.88C189.563 208.699 189.254 208.56 188.849 208.464L187.697 208.192C187.27 208.085 186.87 207.941 186.497 207.76C186.123 207.579 185.819 207.333 185.585 207.024C185.361 206.704 185.249 206.309 185.249 205.84C185.249 205.115 185.521 204.523 186.065 204.064C186.609 203.595 187.318 203.36 188.193 203.36C188.779 203.36 189.265 203.445 189.649 203.616C190.033 203.776 190.337 203.979 190.561 204.224C190.795 204.469 190.966 204.715 191.073 204.96C191.19 205.205 191.265 205.413 191.297 205.584C191.329 205.744 191.345 205.824 191.345 205.824H189.873C189.873 205.824 189.857 205.765 189.825 205.648C189.793 205.52 189.718 205.381 189.601 205.232C189.494 205.072 189.329 204.933 189.105 204.816C188.881 204.688 188.582 204.624 188.209 204.624C187.697 204.624 187.323 204.741 187.089 204.976C186.854 205.211 186.737 205.467 186.737 205.744C186.737 206.011 186.843 206.229 187.057 206.4C187.281 206.56 187.569 206.683 187.921 206.768L189.089 207.04C189.814 207.211 190.411 207.493 190.881 207.888C191.361 208.272 191.601 208.827 191.601 209.552C191.601 210.021 191.478 210.459 191.233 210.864C190.987 211.259 190.635 211.573 190.177 211.808C189.718 212.043 189.158 212.16 188.497 212.16ZM200.245 203.36C200.778 203.36 201.226 203.445 201.589 203.616C201.952 203.787 202.245 203.989 202.469 204.224C202.693 204.448 202.864 204.661 202.981 204.864H203.077V203.52H204.597V212H203.077V210.656H202.981C202.864 210.859 202.693 211.077 202.469 211.312C202.245 211.547 201.952 211.749 201.589 211.92C201.226 212.08 200.778 212.16 200.245 212.16C199.605 212.16 199.045 212.037 198.565 211.792C198.085 211.536 197.685 211.2 197.365 210.784C197.045 210.357 196.805 209.883 196.645 209.36C196.485 208.837 196.405 208.304 196.405 207.76C196.405 207.216 196.485 206.683 196.645 206.16C196.805 205.637 197.045 205.168 197.365 204.752C197.685 204.325 198.085 203.989 198.565 203.744C199.045 203.488 199.605 203.36 200.245 203.36ZM200.501 204.656C199.936 204.656 199.461 204.811 199.077 205.12C198.693 205.419 198.405 205.803 198.213 206.272C198.032 206.741 197.941 207.237 197.941 207.76C197.941 208.272 198.032 208.768 198.213 209.248C198.405 209.717 198.693 210.107 199.077 210.416C199.461 210.715 199.936 210.864 200.501 210.864C201.066 210.864 201.536 210.715 201.909 210.416C202.293 210.107 202.576 209.717 202.757 209.248C202.949 208.768 203.045 208.272 203.045 207.76C203.045 207.237 202.949 206.741 202.757 206.272C202.576 205.803 202.293 205.419 201.909 205.12C201.536 204.811 201.066 204.656 200.501 204.656ZM206.511 212V203.52H208.031V204.752H208.127C208.201 204.624 208.324 204.448 208.495 204.224C208.676 204 208.932 203.803 209.263 203.632C209.593 203.451 210.009 203.36 210.511 203.36C211.129 203.36 211.657 203.504 212.095 203.792C212.532 204.069 212.863 204.448 213.087 204.928C213.321 205.408 213.439 205.947 213.439 206.544V212H211.919V206.64C211.919 206.075 211.759 205.605 211.439 205.232C211.129 204.859 210.676 204.672 210.079 204.672C209.599 204.672 209.209 204.795 208.911 205.04C208.612 205.275 208.388 205.589 208.239 205.984C208.1 206.368 208.031 206.779 208.031 207.216V212H206.511ZM219.042 212.16C218.402 212.16 217.842 212.037 217.362 211.792C216.882 211.536 216.482 211.2 216.162 210.784C215.842 210.357 215.602 209.883 215.442 209.36C215.282 208.837 215.202 208.304 215.202 207.76C215.202 207.216 215.282 206.683 215.442 206.16C215.602 205.637 215.842 205.168 216.162 204.752C216.482 204.325 216.882 203.989 217.362 203.744C217.842 203.488 218.402 203.36 219.042 203.36C219.576 203.36 220.024 203.445 220.386 203.616C220.749 203.787 221.042 203.989 221.266 204.224C221.49 204.448 221.661 204.661 221.778 204.864H221.874V199.84H223.394V212H221.874V210.656H221.778C221.661 210.859 221.49 211.077 221.266 211.312C221.042 211.547 220.749 211.749 220.386 211.92C220.024 212.08 219.576 212.16 219.042 212.16ZM219.298 210.864C219.864 210.864 220.333 210.715 220.706 210.416C221.09 210.107 221.373 209.717 221.554 209.248C221.746 208.768 221.842 208.272 221.842 207.76C221.842 207.237 221.746 206.741 221.554 206.272C221.373 205.803 221.09 205.419 220.706 205.12C220.333 204.811 219.864 204.656 219.298 204.656C218.733 204.656 218.258 204.811 217.874 205.12C217.49 205.419 217.202 205.803 217.01 206.272C216.829 206.741 216.738 207.237 216.738 207.76C216.738 208.272 216.829 208.768 217.01 209.248C217.202 209.717 217.49 210.107 217.874 210.416C218.258 210.715 218.733 210.864 219.298 210.864ZM17.12 231V222.52H18.64V223.752H18.704C18.7893 223.592 18.9227 223.405 19.104 223.192C19.2853 222.968 19.5307 222.776 19.84 222.616C20.16 222.445 20.56 222.36 21.04 222.36C21.6693 222.36 22.1973 222.515 22.624 222.824C23.0613 223.123 23.3867 223.528 23.6 224.04H23.616C23.8507 223.571 24.1813 223.176 24.608 222.856C25.0453 222.525 25.6107 222.36 26.304 222.36C27.2213 222.36 27.9253 222.675 28.416 223.304C28.9173 223.923 29.168 224.723 29.168 225.704V231H27.648V225.784C27.648 225.155 27.4987 224.648 27.2 224.264C26.9013 223.869 26.4693 223.672 25.904 223.672C25.4133 223.672 25.0187 223.805 24.72 224.072C24.432 224.339 24.224 224.669 24.096 225.064C23.968 225.459 23.904 225.853 23.904 226.248V231H22.384V225.784C22.384 225.155 22.2347 224.648 21.936 224.264C21.648 223.869 21.216 223.672 20.64 223.672C20.1493 223.672 19.7547 223.805 19.456 224.072C19.168 224.339 18.96 224.675 18.832 225.08C18.704 225.475 18.64 225.864 18.64 226.248V231H17.12ZM35.0973 231.16C34.1906 231.16 33.4279 230.952 32.8093 230.536C32.1906 230.109 31.7213 229.56 31.4013 228.888C31.0813 228.216 30.9213 227.507 30.9213 226.76C30.9213 226.003 31.0813 225.293 31.4013 224.632C31.7213 223.96 32.1906 223.416 32.8093 223C33.4279 222.573 34.1906 222.36 35.0973 222.36C36.0039 222.36 36.7666 222.573 37.3853 223C38.0039 223.416 38.4733 223.96 38.7933 224.632C39.1133 225.293 39.2733 226.003 39.2733 226.76C39.2733 227.507 39.1133 228.216 38.7933 228.888C38.4733 229.56 38.0039 230.109 37.3853 230.536C36.7666 230.952 36.0039 231.16 35.0973 231.16ZM35.0973 229.832C35.6733 229.832 36.1533 229.688 36.5373 229.4C36.9319 229.101 37.2253 228.717 37.4173 228.248C37.6199 227.779 37.7213 227.283 37.7213 226.76C37.7213 226.227 37.6199 225.731 37.4173 225.272C37.2253 224.803 36.9319 224.424 36.5373 224.136C36.1533 223.837 35.6733 223.688 35.0973 223.688C34.5319 223.688 34.0519 223.837 33.6573 224.136C33.2626 224.424 32.9639 224.803 32.7613 225.272C32.5693 225.731 32.4733 226.227 32.4733 226.76C32.4733 227.283 32.5693 227.779 32.7613 228.248C32.9639 228.717 33.2626 229.101 33.6573 229.4C34.0519 229.688 34.5319 229.832 35.0973 229.832ZM41.0269 231V222.52H42.5469V223.576H42.6109C42.7922 223.256 43.0589 222.973 43.4109 222.728C43.7629 222.483 44.2589 222.36 44.8989 222.36C45.0802 222.36 45.2455 222.371 45.3949 222.392C45.5442 222.403 45.6189 222.408 45.6189 222.408V223.864C45.6189 223.864 45.5335 223.859 45.3629 223.848C45.2029 223.827 45.0322 223.816 44.8509 223.816C44.1149 223.816 43.5442 224.029 43.1389 224.456C42.7442 224.872 42.5469 225.555 42.5469 226.504V231H41.0269ZM50.1879 231.16C49.4945 231.16 48.8919 231.037 48.3799 230.792C47.8785 230.536 47.4625 230.195 47.1319 229.768C46.8119 229.341 46.5719 228.872 46.4119 228.36C46.2519 227.837 46.1719 227.304 46.1719 226.76C46.1719 226.227 46.2465 225.699 46.3959 225.176C46.5559 224.653 46.7959 224.179 47.1159 223.752C47.4465 223.325 47.8572 222.989 48.3479 222.744C48.8492 222.488 49.4412 222.36 50.1239 222.36C50.8492 222.36 51.4892 222.525 52.0439 222.856C52.5985 223.187 53.0359 223.677 53.3559 224.328C53.6759 224.979 53.8359 225.795 53.8359 226.776V227.224H47.7079C47.7399 227.704 47.8519 228.147 48.0439 228.552C48.2465 228.947 48.5292 229.267 48.8919 229.512C49.2545 229.747 49.6865 229.864 50.1879 229.864C50.6252 229.864 50.9772 229.795 51.2439 229.656C51.5212 229.507 51.7399 229.336 51.8999 229.144C52.0599 228.952 52.1665 228.787 52.2199 228.648C52.2839 228.499 52.3159 228.424 52.3159 228.424H53.7399C53.7399 228.424 53.7132 228.52 53.6599 228.712C53.6065 228.893 53.5105 229.117 53.3719 229.384C53.2332 229.651 53.0305 229.923 52.7639 230.2C52.4972 230.467 52.1559 230.696 51.7399 230.888C51.3239 231.069 50.8065 231.16 50.1879 231.16ZM47.7239 226.04H52.3479C52.3265 225.485 52.2092 225.037 51.9959 224.696C51.7825 224.344 51.5105 224.083 51.1799 223.912C50.8492 223.741 50.4972 223.656 50.1239 223.656C49.4519 223.656 48.9025 223.875 48.4759 224.312C48.0492 224.739 47.7985 225.315 47.7239 226.04ZM59.9495 220.904C59.6615 220.904 59.4215 220.808 59.2295 220.616C59.0482 220.424 58.9575 220.195 58.9575 219.928C58.9575 219.651 59.0482 219.416 59.2295 219.224C59.4215 219.032 59.6615 218.936 59.9495 218.936C60.2268 218.936 60.4615 219.032 60.6535 219.224C60.8455 219.416 60.9415 219.651 60.9415 219.928C60.9415 220.195 60.8455 220.424 60.6535 220.616C60.4615 220.808 60.2268 220.904 59.9495 220.904ZM59.1975 231V222.52H60.7175V231H59.1975ZM62.8563 231V222.52H64.3763V223.752H64.4723C64.5469 223.624 64.6696 223.448 64.8403 223.224C65.0216 223 65.2776 222.803 65.6083 222.632C65.9389 222.451 66.3549 222.36 66.8563 222.36C67.4749 222.36 68.0029 222.504 68.4403 222.792C68.8776 223.069 69.2083 223.448 69.4323 223.928C69.6669 224.408 69.7843 224.947 69.7843 225.544V231H68.2643V225.64C68.2643 225.075 68.1043 224.605 67.7843 224.232C67.4749 223.859 67.0216 223.672 66.4243 223.672C65.9443 223.672 65.5549 223.795 65.2563 224.04C64.9576 224.275 64.7336 224.589 64.5843 224.984C64.4456 225.368 64.3763 225.779 64.3763 226.216V231H62.8563ZM78.6756 231.16C77.801 231.16 77.1396 230.936 76.6916 230.488C76.2543 230.04 76.0356 229.411 76.0356 228.6V223.768H74.5156V222.52H76.0356V220.392H77.5556V222.52H79.6196V223.768H77.5556V228.6C77.5556 229.027 77.673 229.341 77.9076 229.544C78.1423 229.736 78.4836 229.832 78.9316 229.832C79.1663 229.832 79.3903 229.816 79.6036 229.784C79.817 229.752 79.9236 229.736 79.9236 229.736V231.032C79.9236 231.032 79.801 231.053 79.5556 231.096C79.3103 231.139 79.017 231.16 78.6756 231.16ZM81.7594 231V218.84H83.2794V223.752H83.3754C83.45 223.624 83.5727 223.448 83.7434 223.224C83.9247 223 84.1807 222.803 84.5114 222.632C84.842 222.451 85.258 222.36 85.7594 222.36C86.378 222.36 86.906 222.504 87.3434 222.792C87.7807 223.069 88.1114 223.448 88.3354 223.928C88.57 224.408 88.6874 224.947 88.6874 225.544V231H87.1674V225.64C87.1674 225.075 87.0074 224.605 86.6874 224.232C86.378 223.859 85.9247 223.672 85.3274 223.672C84.8474 223.672 84.458 223.795 84.1594 224.04C83.8607 224.275 83.6367 224.589 83.4874 224.984C83.3487 225.368 83.2794 225.779 83.2794 226.216V231H81.7594ZM91.5995 220.904C91.3115 220.904 91.0715 220.808 90.8795 220.616C90.6982 220.424 90.6075 220.195 90.6075 219.928C90.6075 219.651 90.6982 219.416 90.8795 219.224C91.0715 219.032 91.3115 218.936 91.5995 218.936C91.8768 218.936 92.1115 219.032 92.3035 219.224C92.4955 219.416 92.5915 219.651 92.5915 219.928C92.5915 220.195 92.4955 220.424 92.3035 220.616C92.1115 220.808 91.8768 220.904 91.5995 220.904ZM90.8475 231V222.52H92.3675V231H90.8475ZM97.6103 231.16C96.9596 231.16 96.4209 231.069 95.9943 230.888C95.5783 230.707 95.2476 230.483 95.0023 230.216C94.7569 229.939 94.5756 229.667 94.4583 229.4C94.3409 229.123 94.2663 228.893 94.2343 228.712C94.2023 228.531 94.1863 228.44 94.1863 228.44H95.7223C95.7223 228.44 95.7383 228.515 95.7703 228.664C95.8129 228.803 95.8929 228.968 96.0103 229.16C96.1383 229.341 96.3303 229.507 96.5863 229.656C96.8529 229.795 97.2049 229.864 97.6423 229.864C98.1436 229.864 98.5329 229.747 98.8103 229.512C99.0876 229.267 99.2263 228.968 99.2263 228.616C99.2263 228.307 99.1143 228.061 98.8903 227.88C98.6769 227.699 98.3676 227.56 97.9623 227.464L96.8103 227.192C96.3836 227.085 95.9836 226.941 95.6103 226.76C95.2369 226.579 94.9329 226.333 94.6983 226.024C94.4743 225.704 94.3623 225.309 94.3623 224.84C94.3623 224.115 94.6343 223.523 95.1783 223.064C95.7223 222.595 96.4316 222.36 97.3063 222.36C97.8929 222.36 98.3783 222.445 98.7623 222.616C99.1463 222.776 99.4503 222.979 99.6743 223.224C99.9089 223.469 100.08 223.715 100.186 223.96C100.304 224.205 100.378 224.413 100.41 224.584C100.442 224.744 100.458 224.824 100.458 224.824H98.9863C98.9863 224.824 98.9703 224.765 98.9383 224.648C98.9063 224.52 98.8316 224.381 98.7143 224.232C98.6076 224.072 98.4423 223.933 98.2183 223.816C97.9943 223.688 97.6956 223.624 97.3223 223.624C96.8103 223.624 96.4369 223.741 96.2023 223.976C95.9676 224.211 95.8503 224.467 95.8503 224.744C95.8503 225.011 95.9569 225.229 96.1703 225.4C96.3943 225.56 96.6823 225.683 97.0343 225.768L98.2023 226.04C98.9276 226.211 99.5249 226.493 99.9943 226.888C100.474 227.272 100.714 227.827 100.714 228.552C100.714 229.021 100.592 229.459 100.346 229.864C100.101 230.259 99.7489 230.573 99.2903 230.808C98.8316 231.043 98.2716 231.16 97.6103 231.16ZM105.839 234.136V222.52H107.359V223.864H107.455C107.583 223.661 107.753 223.443 107.967 223.208C108.191 222.973 108.484 222.776 108.847 222.616C109.209 222.445 109.657 222.36 110.191 222.36C110.831 222.36 111.391 222.488 111.871 222.744C112.351 222.989 112.751 223.325 113.071 223.752C113.391 224.168 113.631 224.637 113.791 225.16C113.951 225.683 114.031 226.216 114.031 226.76C114.031 227.304 113.951 227.837 113.791 228.36C113.631 228.883 113.391 229.357 113.071 229.784C112.751 230.2 112.351 230.536 111.871 230.792C111.391 231.037 110.831 231.16 110.191 231.16C109.657 231.16 109.209 231.075 108.847 230.904C108.484 230.733 108.191 230.531 107.967 230.296C107.753 230.061 107.583 229.848 107.455 229.656H107.359V234.136H105.839ZM107.391 226.76C107.391 227.272 107.481 227.768 107.663 228.248C107.855 228.717 108.137 229.107 108.511 229.416C108.895 229.715 109.369 229.864 109.935 229.864C110.511 229.864 110.985 229.715 111.359 229.416C111.743 229.107 112.025 228.717 112.207 228.248C112.399 227.768 112.495 227.272 112.495 226.76C112.495 226.237 112.399 225.741 112.207 225.272C112.025 224.803 111.743 224.419 111.359 224.12C110.985 223.811 110.511 223.656 109.935 223.656C109.369 223.656 108.895 223.811 108.511 224.12C108.137 224.419 107.855 224.803 107.663 225.272C107.481 225.741 107.391 226.237 107.391 226.76ZM119.398 222.36C119.931 222.36 120.379 222.445 120.742 222.616C121.105 222.787 121.398 222.989 121.622 223.224C121.846 223.448 122.017 223.661 122.134 223.864H122.23V222.52H123.75V231H122.23V229.656H122.134C122.017 229.859 121.846 230.077 121.622 230.312C121.398 230.547 121.105 230.749 120.742 230.92C120.379 231.08 119.931 231.16 119.398 231.16C118.758 231.16 118.198 231.037 117.718 230.792C117.238 230.536 116.838 230.2 116.518 229.784C116.198 229.357 115.958 228.883 115.798 228.36C115.638 227.837 115.558 227.304 115.558 226.76C115.558 226.216 115.638 225.683 115.798 225.16C115.958 224.637 116.198 224.168 116.518 223.752C116.838 223.325 117.238 222.989 117.718 222.744C118.198 222.488 118.758 222.36 119.398 222.36ZM119.654 223.656C119.089 223.656 118.614 223.811 118.23 224.12C117.846 224.419 117.558 224.803 117.366 225.272C117.185 225.741 117.094 226.237 117.094 226.76C117.094 227.272 117.185 227.768 117.366 228.248C117.558 228.717 117.846 229.107 118.23 229.416C118.614 229.715 119.089 229.864 119.654 229.864C120.219 229.864 120.689 229.715 121.062 229.416C121.446 229.107 121.729 228.717 121.91 228.248C122.102 227.768 122.198 227.272 122.198 226.76C122.198 226.237 122.102 225.741 121.91 225.272C121.729 224.803 121.446 224.419 121.062 224.12C120.689 223.811 120.219 223.656 119.654 223.656ZM129.68 231.16C128.986 231.16 128.378 231.037 127.856 230.792C127.333 230.536 126.896 230.2 126.544 229.784C126.202 229.357 125.941 228.883 125.76 228.36C125.589 227.837 125.504 227.304 125.504 226.76C125.504 226.216 125.589 225.688 125.76 225.176C125.93 224.653 126.186 224.179 126.528 223.752C126.88 223.325 127.317 222.989 127.84 222.744C128.362 222.488 128.976 222.36 129.68 222.36C130.362 222.36 130.928 222.461 131.376 222.664C131.824 222.867 132.181 223.123 132.448 223.432C132.725 223.731 132.928 224.035 133.056 224.344C133.194 224.643 133.285 224.893 133.328 225.096C133.37 225.299 133.392 225.4 133.392 225.4H131.92C131.92 225.4 131.893 225.315 131.84 225.144C131.786 224.963 131.685 224.76 131.536 224.536C131.386 224.312 131.162 224.115 130.864 223.944C130.565 223.763 130.17 223.672 129.68 223.672C129.093 223.672 128.597 223.821 128.192 224.12C127.797 224.408 127.498 224.787 127.296 225.256C127.104 225.725 127.008 226.227 127.008 226.76C127.008 227.293 127.104 227.795 127.296 228.264C127.498 228.733 127.797 229.117 128.192 229.416C128.597 229.704 129.093 229.848 129.68 229.848C130.17 229.848 130.565 229.763 130.864 229.592C131.162 229.411 131.386 229.208 131.536 228.984C131.685 228.76 131.786 228.563 131.84 228.392C131.893 228.211 131.92 228.12 131.92 228.12H133.392C133.392 228.12 133.37 228.221 133.328 228.424C133.285 228.627 133.194 228.883 133.056 229.192C132.928 229.491 132.725 229.795 132.448 230.104C132.181 230.403 131.824 230.653 131.376 230.856C130.928 231.059 130.362 231.16 129.68 231.16ZM135.316 231V218.84H136.836V225.912L140.212 222.52H142.196L138.292 226.376L142.276 231H140.34L136.836 226.92V231H135.316ZM144.879 231.16C144.581 231.16 144.33 231.059 144.127 230.856C143.935 230.643 143.839 230.397 143.839 230.12C143.839 229.832 143.935 229.587 144.127 229.384C144.33 229.181 144.581 229.08 144.879 229.08C145.178 229.08 145.423 229.181 145.615 229.384C145.818 229.587 145.919 229.832 145.919 230.12C145.919 230.408 145.818 230.653 145.615 230.856C145.423 231.059 145.178 231.16 144.879 231.16Z" fill="white"/>
<path d="M44.5435 272.283L40.7329 264.062H42.3258L44.8744 270.041L47.4475 264.062H49.0403L45.2174 272.283H44.5435ZM51.0316 264.907C50.7702 264.907 50.5497 264.813 50.37 264.625C50.1903 264.437 50.1004 264.225 50.1004 263.988C50.1004 263.743 50.1903 263.531 50.37 263.351C50.5497 263.163 50.7702 263.069 51.0316 263.069C51.2032 263.069 51.3584 263.114 51.4972 263.204C51.6361 263.286 51.7464 263.396 51.8281 263.535C51.9179 263.674 51.9628 263.825 51.9628 263.988C51.9628 264.143 51.9179 264.294 51.8281 264.441C51.7464 264.58 51.6361 264.695 51.4972 264.785C51.3584 264.866 51.2032 264.907 51.0316 264.907ZM50.5538 272.271V266.12H51.7791V272.271H50.5538ZM49.5736 267.223V266.12H51.7791V267.223H49.5736ZM55.9881 272.455C55.4817 272.455 55.012 272.324 54.5791 272.063C54.1543 271.801 53.8112 271.434 53.5498 270.96C53.2966 270.478 53.17 269.914 53.17 269.269C53.17 268.591 53.2966 268.007 53.5498 267.517C53.8112 267.027 54.1625 266.651 54.6036 266.39C55.0528 266.12 55.5511 265.985 56.0984 265.985C56.4415 265.985 56.7886 266.067 57.1399 266.23C57.4993 266.394 57.8015 266.614 58.0466 266.892V263.449H59.2719V272.271H58.0466V271.23C57.8506 271.556 57.5728 271.842 57.2134 272.087C56.8622 272.332 56.4537 272.455 55.9881 272.455ZM56.2454 271.242C56.5804 271.242 56.8826 271.156 57.1521 270.984C57.4299 270.805 57.6504 270.56 57.8138 270.249C57.9772 269.931 58.0548 269.567 58.0466 269.159V268.093C57.8015 267.815 57.5402 267.599 57.2624 267.443C56.9929 267.28 56.6825 267.198 56.3312 267.198C55.9391 267.198 55.6001 267.296 55.3142 267.492C55.0365 267.688 54.82 267.946 54.6648 268.264C54.5178 268.575 54.4443 268.91 54.4443 269.269C54.4443 269.628 54.5178 269.959 54.6648 270.262C54.82 270.564 55.0324 270.805 55.302 270.984C55.5715 271.156 55.886 271.242 56.2454 271.242ZM63.8485 272.455C63.3911 272.455 62.9623 272.373 62.562 272.21C62.1699 272.046 61.8268 271.818 61.5328 271.524C61.2387 271.23 61.01 270.891 60.8466 270.507C60.6832 270.115 60.6016 269.694 60.6016 269.245C60.6016 268.656 60.7322 268.117 60.9936 267.627C61.255 267.129 61.6144 266.733 62.0719 266.439C62.5293 266.136 63.048 265.985 63.628 265.985C64.2488 265.985 64.7716 266.116 65.1963 266.377C65.6211 266.639 65.9397 266.998 66.1521 267.456C66.3726 267.905 66.4829 268.42 66.4829 269V269.624H61.7411V268.681H65.2944C65.2617 268.322 65.1596 268.027 64.988 267.799C64.8247 267.57 64.6205 267.398 64.3754 267.284C64.1385 267.17 63.8853 267.113 63.6157 267.113C63.2563 267.113 62.9418 267.211 62.6723 267.407C62.4109 267.595 62.2067 267.848 62.0596 268.166C61.9126 268.485 61.8391 268.844 61.8391 269.245C61.8391 269.62 61.9208 269.963 62.0841 270.274C62.2557 270.584 62.4966 270.833 62.8071 271.021C63.1175 271.209 63.4728 271.303 63.873 271.303C64.3223 271.303 64.7307 271.201 65.0983 270.997C65.4741 270.784 65.7845 270.564 66.0295 270.335V271.56C65.907 271.691 65.7355 271.826 65.5149 271.965C65.2944 272.104 65.0411 272.218 64.7552 272.308C64.4693 272.406 64.1671 272.455 63.8485 272.455ZM70.6062 272.455C70.1488 272.455 69.724 272.373 69.3319 272.21C68.9398 272.038 68.5927 271.805 68.2904 271.511C67.9964 271.209 67.7676 270.866 67.6043 270.482C67.4409 270.09 67.3592 269.669 67.3592 269.22C67.3592 268.779 67.4409 268.362 67.6043 267.97C67.7676 267.578 67.9964 267.235 68.2904 266.941C68.5927 266.647 68.9398 266.414 69.3319 266.243C69.724 266.071 70.1488 265.985 70.6062 265.985C71.0636 265.985 71.4884 266.071 71.8805 266.243C72.2726 266.414 72.6157 266.647 72.9097 266.941C73.212 267.235 73.4448 267.578 73.6081 267.97C73.7715 268.362 73.8532 268.779 73.8532 269.22C73.8532 269.669 73.7715 270.09 73.6081 270.482C73.4448 270.866 73.212 271.209 72.9097 271.511C72.6157 271.805 72.2726 272.038 71.8805 272.21C71.4884 272.373 71.0636 272.455 70.6062 272.455ZM70.6062 271.266C70.9901 271.266 71.3291 271.176 71.6232 270.997C71.9172 270.817 72.146 270.572 72.3093 270.262C72.4809 269.951 72.5666 269.604 72.5666 269.22C72.5666 268.828 72.4809 268.481 72.3093 268.179C72.146 267.868 71.9172 267.623 71.6232 267.443C71.3291 267.264 70.9901 267.174 70.6062 267.174C70.2304 267.174 69.8915 267.264 69.5892 267.443C69.2951 267.623 69.0623 267.868 68.8908 268.179C68.7274 268.481 68.6458 268.828 68.6458 269.22C68.6458 269.604 68.7274 269.951 68.8908 270.262C69.0623 270.572 69.2951 270.817 69.5892 270.997C69.8915 271.176 70.2304 271.266 70.6062 271.266ZM80.1639 272.455C79.9106 272.455 79.6533 272.422 79.3919 272.357C79.1305 272.3 78.8937 272.226 78.6813 272.136C78.4689 272.046 78.3014 271.961 78.1789 271.879V270.69C78.3096 270.78 78.4811 270.878 78.6935 270.984C78.9141 271.082 79.1428 271.164 79.3797 271.23C79.6166 271.295 79.833 271.328 80.0291 271.328C80.3885 271.328 80.6662 271.254 80.8623 271.107C81.0665 270.96 81.1686 270.768 81.1686 270.531C81.1686 270.351 81.0951 270.213 80.948 270.115C80.801 270.008 80.5886 269.906 80.3109 269.808L79.4655 269.502C78.9917 269.33 78.669 269.106 78.4975 268.828C78.3341 268.55 78.2524 268.228 78.2524 267.86C78.2524 267.492 78.3464 267.17 78.5342 266.892C78.7221 266.614 78.9835 266.394 79.3184 266.23C79.6615 266.067 80.0577 265.985 80.5069 265.985C80.8745 265.985 81.2176 266.038 81.5362 266.145C81.8547 266.251 82.0916 266.365 82.2468 266.488V267.688C82.0671 267.558 81.8302 267.431 81.5362 267.309C81.2503 267.186 80.9521 267.125 80.6417 267.125C80.2905 267.125 80.0209 267.207 79.833 267.37C79.6533 267.525 79.5635 267.697 79.5635 267.884C79.5635 268.032 79.6166 268.174 79.7228 268.313C79.829 268.452 80.0209 268.567 80.2986 268.656L81.1931 268.975C81.626 269.114 81.9487 269.318 82.1611 269.588C82.3734 269.849 82.4796 270.168 82.4796 270.543C82.4796 270.895 82.3775 271.217 82.1733 271.511C81.9691 271.805 81.6914 272.038 81.3401 272.21C80.997 272.373 80.605 272.455 80.1639 272.455ZM86.4927 272.455C86.0352 272.455 85.6064 272.373 85.2061 272.21C84.814 272.046 84.471 271.818 84.1769 271.524C83.8828 271.23 83.6541 270.891 83.4907 270.507C83.3274 270.115 83.2457 269.694 83.2457 269.245C83.2457 268.656 83.3764 268.117 83.6378 267.627C83.8992 267.129 84.2586 266.733 84.716 266.439C85.1735 266.136 85.6922 265.985 86.2721 265.985C86.8929 265.985 87.4157 266.116 87.8405 266.377C88.2652 266.639 88.5838 266.998 88.7962 267.456C89.0167 267.905 89.127 268.42 89.127 269V269.624H84.3852V268.681H87.9385C87.9058 268.322 87.8037 268.027 87.6322 267.799C87.4688 267.57 87.2646 267.398 87.0195 267.284C86.7827 267.17 86.5294 267.113 86.2599 267.113C85.9005 267.113 85.586 267.211 85.3164 267.407C85.055 267.595 84.8508 267.848 84.7038 268.166C84.5567 268.485 84.4832 268.844 84.4832 269.245C84.4832 269.62 84.5649 269.963 84.7283 270.274C84.8998 270.584 85.1408 270.833 85.4512 271.021C85.7616 271.209 86.1169 271.303 86.5172 271.303C86.9664 271.303 87.3749 271.201 87.7425 270.997C88.1182 270.784 88.4286 270.564 88.6737 270.335V271.56C88.5511 271.691 88.3796 271.826 88.159 271.965C87.9385 272.104 87.6853 272.218 87.3994 272.308C87.1135 272.406 86.8112 272.455 86.4927 272.455ZM90.4322 272.271V266.12H91.6575V272.271H90.4322ZM91.6575 268.669V267.321C91.8862 266.929 92.1557 266.61 92.4661 266.365C92.7847 266.12 93.1237 265.998 93.4831 265.998C93.72 265.998 93.9283 266.038 94.108 266.12V267.517C93.9855 267.443 93.8589 267.386 93.7282 267.345C93.5975 267.305 93.4586 267.284 93.3116 267.284C92.9195 267.284 92.5968 267.419 92.3436 267.688C92.0986 267.958 91.8698 268.285 91.6575 268.669ZM96.2096 264.907C95.9482 264.907 95.7277 264.813 95.548 264.625C95.3683 264.437 95.2784 264.225 95.2784 263.988C95.2784 263.743 95.3683 263.531 95.548 263.351C95.7277 263.163 95.9482 263.069 96.2096 263.069C96.3812 263.069 96.5364 263.114 96.6752 263.204C96.8141 263.286 96.9244 263.396 97.006 263.535C97.0959 263.674 97.1408 263.825 97.1408 263.988C97.1408 264.143 97.0959 264.294 97.006 264.441C96.9244 264.58 96.8141 264.695 96.6752 264.785C96.5364 264.866 96.3812 264.907 96.2096 264.907ZM95.7318 272.271V266.12H96.957V272.271H95.7318ZM94.7515 267.223V266.12H96.957V267.223H94.7515ZM101.595 272.455C101.138 272.455 100.709 272.373 100.308 272.21C99.9163 272.046 99.5733 271.818 99.2792 271.524C98.9851 271.23 98.7564 270.891 98.593 270.507C98.4297 270.115 98.348 269.694 98.348 269.245C98.348 268.656 98.4787 268.117 98.7401 267.627C99.0015 267.129 99.3609 266.733 99.8183 266.439C100.276 266.136 100.794 265.985 101.374 265.985C101.995 265.985 102.518 266.116 102.943 266.377C103.368 266.639 103.686 266.998 103.898 267.456C104.119 267.905 104.229 268.42 104.229 269V269.624H99.4875V268.681H103.041C103.008 268.322 102.906 268.027 102.734 267.799C102.571 267.57 102.367 267.398 102.122 267.284C101.885 267.17 101.632 267.113 101.362 267.113C101.003 267.113 100.688 267.211 100.419 267.407C100.157 267.595 99.9531 267.848 99.8061 268.166C99.659 268.485 99.5855 268.844 99.5855 269.245C99.5855 269.62 99.6672 269.963 99.8306 270.274C100.002 270.584 100.243 270.833 100.553 271.021C100.864 271.209 101.219 271.303 101.619 271.303C102.069 271.303 102.477 271.201 102.845 270.997C103.22 270.784 103.531 270.564 103.776 270.335V271.56C103.653 271.691 103.482 271.826 103.261 271.965C103.041 272.104 102.788 272.218 102.502 272.308C102.216 272.406 101.914 272.455 101.595 272.455ZM107.091 272.455C106.837 272.455 106.58 272.422 106.319 272.357C106.057 272.3 105.82 272.226 105.608 272.136C105.396 272.046 105.228 271.961 105.106 271.879V270.69C105.236 270.78 105.408 270.878 105.62 270.984C105.841 271.082 106.07 271.164 106.306 271.23C106.543 271.295 106.76 271.328 106.956 271.328C107.315 271.328 107.593 271.254 107.789 271.107C107.993 270.96 108.095 270.768 108.095 270.531C108.095 270.351 108.022 270.213 107.875 270.115C107.728 270.008 107.515 269.906 107.238 269.808L106.392 269.502C105.918 269.33 105.596 269.106 105.424 268.828C105.261 268.55 105.179 268.228 105.179 267.86C105.179 267.492 105.273 267.17 105.461 266.892C105.649 266.614 105.91 266.394 106.245 266.23C106.588 266.067 106.984 265.985 107.434 265.985C107.801 265.985 108.144 266.038 108.463 266.145C108.781 266.251 109.018 266.365 109.174 266.488V267.688C108.994 267.558 108.757 267.431 108.463 267.309C108.177 267.186 107.879 267.125 107.568 267.125C107.217 267.125 106.948 267.207 106.76 267.37C106.58 267.525 106.49 267.697 106.49 267.884C106.49 268.032 106.543 268.174 106.649 268.313C106.756 268.452 106.948 268.567 107.225 268.656L108.12 268.975C108.553 269.114 108.875 269.318 109.088 269.588C109.3 269.849 109.406 270.168 109.406 270.543C109.406 270.895 109.304 271.217 109.1 271.511C108.896 271.805 108.618 272.038 108.267 272.21C107.924 272.373 107.532 272.455 107.091 272.455Z" fill="white"/>
<path d="M26.5419 258.757C21.6925 258.757 17.7568 262.693 17.7568 267.542C17.7568 272.391 21.6925 276.327 26.5419 276.327C31.3912 276.327 35.3269 272.391 35.3269 267.542C35.3269 262.693 31.3912 258.757 26.5419 258.757ZM28.8787 269.062L27.7542 269.712L26.6297 270.362C25.1802 271.197 23.9942 270.511 23.9942 268.842V267.542V266.242C23.9942 264.564 25.1802 263.887 26.6297 264.722L27.7542 265.372L28.8787 266.022C30.3282 266.857 30.3282 268.227 28.8787 269.062Z" fill="white"/>
<path d="M30.2228 283.841H22.8609C19.6632 283.841 17.7568 285.747 17.7568 288.945V296.298C17.7568 299.505 19.6632 301.411 22.8609 301.411H30.214C33.4118 301.411 35.3181 299.505 35.3181 296.307V288.945C35.3269 285.747 33.4206 283.841 30.2228 283.841ZM26.1026 297.238C26.1026 297.555 25.7864 297.765 25.4965 297.642C24.4335 297.186 23.0454 296.764 22.0791 296.641L21.9122 296.623C21.3763 296.553 20.937 296.052 20.937 295.508V288.743C20.937 288.067 21.4817 287.566 22.1494 287.619C23.2475 287.706 24.8727 288.234 25.8918 288.813C26.0324 288.892 26.1026 289.042 26.1026 289.191V297.238ZM32.1467 295.499C32.1467 296.043 31.7075 296.544 31.1716 296.615L30.9871 296.632C30.0295 296.764 28.6503 297.177 27.5873 297.625C27.2974 297.748 26.9811 297.537 26.9811 297.221V289.182C26.9811 289.024 27.0602 288.875 27.2008 288.796C28.2198 288.225 29.8099 287.715 30.8905 287.619H30.9256C31.6021 287.619 32.1467 288.163 32.1467 288.84V295.499Z" fill="white"/>
<path d="M41.8724 297.355V289.146H47.3249V290.383H43.208V297.355H41.8724ZM42.7424 294.096V292.858H46.6143V294.096H42.7424ZM48.7649 297.355V291.204H49.9901V297.355H48.7649ZM49.9901 293.753V292.405C50.2189 292.013 50.4884 291.694 50.7988 291.449C51.1174 291.204 51.4564 291.082 51.8158 291.082C52.0527 291.082 52.261 291.123 52.4407 291.204V292.601C52.3182 292.528 52.1916 292.47 52.0609 292.429C51.9302 292.389 51.7913 292.368 51.6443 292.368C51.2522 292.368 50.9295 292.503 50.6763 292.773C50.4312 293.042 50.2025 293.369 49.9901 293.753ZM56.2577 297.539C55.8003 297.539 55.3714 297.457 54.9712 297.294C54.5791 297.13 54.236 296.902 53.9419 296.608C53.6479 296.314 53.4191 295.975 53.2558 295.591C53.0924 295.199 53.0107 294.778 53.0107 294.329C53.0107 293.741 53.1414 293.201 53.4028 292.711C53.6642 292.213 54.0236 291.817 54.481 291.523C54.9385 291.221 55.4572 291.069 56.0371 291.069C56.658 291.069 57.1807 291.2 57.6055 291.462C58.0303 291.723 58.3488 292.082 58.5612 292.54C58.7818 292.989 58.892 293.504 58.892 294.084V294.709H54.1502V293.765H57.7035C57.6708 293.406 57.5687 293.112 57.3972 292.883C57.2338 292.654 57.0296 292.483 56.7846 292.368C56.5477 292.254 56.2945 292.197 56.0249 292.197C55.6655 292.197 55.351 292.295 55.0814 292.491C54.82 292.679 54.6158 292.932 54.4688 293.25C54.3218 293.569 54.2482 293.928 54.2482 294.329C54.2482 294.704 54.3299 295.047 54.4933 295.358C54.6648 295.668 54.9058 295.917 55.2162 296.105C55.5266 296.293 55.8819 296.387 56.2822 296.387C56.7315 296.387 57.1399 296.285 57.5075 296.081C57.8832 295.868 58.1936 295.648 58.4387 295.419V296.644C58.3162 296.775 58.1446 296.91 57.9241 297.049C57.7035 297.188 57.4503 297.302 57.1644 297.392C56.8785 297.49 56.5763 297.539 56.2577 297.539ZM63.0154 297.539C62.5579 297.539 62.1291 297.457 61.7288 297.294C61.3367 297.13 60.9936 296.902 60.6996 296.608C60.4055 296.314 60.1768 295.975 60.0134 295.591C59.85 295.199 59.7684 294.778 59.7684 294.329C59.7684 293.741 59.8991 293.201 60.1605 292.711C60.4218 292.213 60.7813 291.817 61.2387 291.523C61.6961 291.221 62.2148 291.069 62.7948 291.069C63.4156 291.069 63.9384 291.2 64.3632 291.462C64.7879 291.723 65.1065 292.082 65.3189 292.54C65.5394 292.989 65.6497 293.504 65.6497 294.084V294.709H60.9079V293.765H64.4612C64.4285 293.406 64.3264 293.112 64.1549 292.883C63.9915 292.654 63.7873 292.483 63.5422 292.368C63.3053 292.254 63.0521 292.197 62.7825 292.197C62.4231 292.197 62.1086 292.295 61.8391 292.491C61.5777 292.679 61.3735 292.932 61.2264 293.25C61.0794 293.569 61.0059 293.928 61.0059 294.329C61.0059 294.704 61.0876 295.047 61.2509 295.358C61.4225 295.668 61.6635 295.917 61.9739 296.105C62.2843 296.293 62.6396 296.387 63.0399 296.387C63.4891 296.387 63.8976 296.285 64.2651 296.081C64.6409 295.868 64.9513 295.648 65.1963 295.419V296.644C65.0738 296.775 64.9023 296.91 64.6817 297.049C64.4612 297.188 64.208 297.302 63.9221 297.392C63.6362 297.49 63.3339 297.539 63.0154 297.539ZM73.1979 297.539C72.7405 297.539 72.3116 297.457 71.9114 297.294C71.5193 297.13 71.1762 296.902 70.8821 296.608C70.5881 296.314 70.3593 295.975 70.196 295.591C70.0326 295.199 69.9509 294.778 69.9509 294.329C69.9509 293.741 70.0816 293.201 70.343 292.711C70.6044 292.213 70.9638 291.817 71.4213 291.523C71.8787 291.221 72.3974 291.069 72.9774 291.069C73.5982 291.069 74.1209 291.2 74.5457 291.462C74.9705 291.723 75.289 292.082 75.5014 292.54C75.722 292.989 75.8323 293.504 75.8323 294.084V294.709H71.0904V293.765H74.6437C74.6111 293.406 74.509 293.112 74.3374 292.883C74.174 292.654 73.9698 292.483 73.7248 292.368C73.4879 292.254 73.2347 292.197 72.9651 292.197C72.6057 292.197 72.2912 292.295 72.0216 292.491C71.7602 292.679 71.556 292.932 71.409 293.25C71.262 293.569 71.1884 293.928 71.1884 294.329C71.1884 294.704 71.2701 295.047 71.4335 295.358C71.605 295.668 71.846 295.917 72.1564 296.105C72.4668 296.293 72.8222 296.387 73.2224 296.387C73.6717 296.387 74.0801 296.285 74.4477 296.081C74.8234 295.868 75.1338 295.648 75.3789 295.419V296.644C75.2564 296.775 75.0848 296.91 74.8643 297.049C74.6437 297.188 74.3905 297.302 74.1046 297.392C73.8187 297.49 73.5165 297.539 73.1979 297.539ZM80.5192 297.49C80.1761 297.49 79.8126 297.474 79.4287 297.441C79.0448 297.416 78.6772 297.38 78.3259 297.331C77.9747 297.282 77.6684 297.228 77.407 297.171V289.256C77.8481 289.158 78.3219 289.084 78.8283 289.035C79.3429 288.978 79.8616 288.95 80.3844 288.95C81.0052 288.95 81.5443 289.052 82.0018 289.256C82.4592 289.452 82.8105 289.726 83.0555 290.077C83.3087 290.42 83.4354 290.816 83.4354 291.265C83.4354 291.674 83.321 292.041 83.0923 292.368C82.8717 292.687 82.594 292.932 82.2591 293.103C82.5041 293.161 82.741 293.267 82.9697 293.422C83.2066 293.569 83.4027 293.773 83.5579 294.035C83.7131 294.296 83.7907 294.623 83.7907 295.015C83.7907 295.472 83.66 295.889 83.3986 296.265C83.1372 296.64 82.7614 296.939 82.2713 297.159C81.7812 297.38 81.1972 297.49 80.5192 297.49ZM80.4947 296.277C81.0501 296.277 81.5076 296.158 81.867 295.922C82.2264 295.685 82.4061 295.37 82.4061 294.978C82.4061 294.57 82.2264 294.267 81.867 294.071C81.5076 293.867 81.0665 293.765 80.5437 293.765H78.522V292.675H80.5437C81.042 292.675 81.4218 292.548 81.6832 292.295C81.9528 292.041 82.0875 291.739 82.0875 291.388C82.0875 291.127 82.0059 290.906 81.8425 290.726C81.6873 290.547 81.479 290.412 81.2176 290.322C80.9644 290.224 80.6785 290.175 80.3599 290.175C80.0495 290.175 79.7595 290.187 79.49 290.212C79.2286 290.228 78.9794 290.261 78.7425 290.31V296.13C78.9222 296.162 79.1224 296.191 79.3429 296.216C79.5635 296.24 79.7759 296.256 79.9801 296.265C80.1924 296.273 80.364 296.277 80.4947 296.277ZM87.9017 297.539C87.4443 297.539 87.0195 297.457 86.6274 297.294C86.2354 297.122 85.8882 296.889 85.586 296.595C85.2919 296.293 85.0632 295.95 84.8998 295.566C84.7364 295.174 84.6547 294.753 84.6547 294.304C84.6547 293.863 84.7364 293.446 84.8998 293.054C85.0632 292.662 85.2919 292.319 85.586 292.025C85.8882 291.731 86.2354 291.498 86.6274 291.327C87.0195 291.155 87.4443 291.069 87.9017 291.069C88.3592 291.069 88.7839 291.155 89.176 291.327C89.5681 291.498 89.9112 291.731 90.2053 292.025C90.5075 292.319 90.7403 292.662 90.9037 293.054C91.067 293.446 91.1487 293.863 91.1487 294.304C91.1487 294.753 91.067 295.174 90.9037 295.566C90.7403 295.95 90.5075 296.293 90.2053 296.595C89.9112 296.889 89.5681 297.122 89.176 297.294C88.7839 297.457 88.3592 297.539 87.9017 297.539ZM87.9017 296.35C88.2857 296.35 88.6247 296.261 88.9187 296.081C89.2128 295.901 89.4415 295.656 89.6049 295.346C89.7764 295.035 89.8622 294.688 89.8622 294.304C89.8622 293.912 89.7764 293.565 89.6049 293.263C89.4415 292.952 89.2128 292.707 88.9187 292.528C88.6247 292.348 88.2857 292.258 87.9017 292.258C87.526 292.258 87.187 292.348 86.8848 292.528C86.5907 292.707 86.3579 292.952 86.1863 293.263C86.023 293.565 85.9413 293.912 85.9413 294.304C85.9413 294.688 86.023 295.035 86.1863 295.346C86.3579 295.656 86.5907 295.901 86.8848 296.081C87.187 296.261 87.526 296.35 87.9017 296.35ZM95.2965 297.539C94.8391 297.539 94.4143 297.457 94.0223 297.294C93.6302 297.122 93.283 296.889 92.9808 296.595C92.6867 296.293 92.458 295.95 92.2946 295.566C92.1312 295.174 92.0496 294.753 92.0496 294.304C92.0496 293.863 92.1312 293.446 92.2946 293.054C92.458 292.662 92.6867 292.319 92.9808 292.025C93.283 291.731 93.6302 291.498 94.0223 291.327C94.4143 291.155 94.8391 291.069 95.2965 291.069C95.754 291.069 96.1787 291.155 96.5708 291.327C96.9629 291.498 97.306 291.731 97.6001 292.025C97.9023 292.319 98.1351 292.662 98.2985 293.054C98.4618 293.446 98.5435 293.863 98.5435 294.304C98.5435 294.753 98.4618 295.174 98.2985 295.566C98.1351 295.95 97.9023 296.293 97.6001 296.595C97.306 296.889 96.9629 297.122 96.5708 297.294C96.1787 297.457 95.754 297.539 95.2965 297.539ZM95.2965 296.35C95.6805 296.35 96.0195 296.261 96.3135 296.081C96.6076 295.901 96.8363 295.656 96.9997 295.346C97.1712 295.035 97.257 294.688 97.257 294.304C97.257 293.912 97.1712 293.565 96.9997 293.263C96.8363 292.952 96.6076 292.707 96.3135 292.528C96.0195 292.348 95.6805 292.258 95.2965 292.258C94.9208 292.258 94.5818 292.348 94.2796 292.528C93.9855 292.707 93.7527 292.952 93.5812 293.263C93.4178 293.565 93.3361 293.912 93.3361 294.304C93.3361 294.688 93.4178 295.035 93.5812 295.346C93.7527 295.656 93.9855 295.901 94.2796 296.081C94.5818 296.261 94.9208 296.35 95.2965 296.35ZM100.804 295.75V294.353L103.941 291.204H105.509L100.804 295.75ZM99.8732 297.355V288.533H101.098V297.355H99.8732ZM104.113 297.355L101.576 294.255L102.361 293.397L105.657 297.355H104.113Z" fill="white"/>
</g>
<defs>
<radialGradient id="paint0_radial_1707_1050" cx="0" cy="0" r="1" gradientUnits="userSpaceOnUse" gradientTransform="translate(126.5 177.5) rotate(90) scale(177.5 126.5)">
<stop stop-color="#017FF7"/>
<stop offset="1" stop-color="#006DD5"/>
</radialGradient>
<clipPath id="clip0_1707_1050">
<rect width="253" height="355" fill="white"/>
</clipPath>
</defs>
</svg>
